<?xml version="1.0" encoding="UTF-8" standalone="no"?>
<!-- Created with Inkscape (http://www.inkscape.org/) -->
<svg
   xmlns:dc="http://purl.org/dc/elements/1.1/"
   xmlns:cc="http://web.resource.org/cc/"
   xmlns:rdf="http://www.w3.org/1999/02/22-rdf-syntax-ns#"
   xmlns:svg="http://www.w3.org/2000/svg"
   xmlns="http://www.w3.org/2000/svg"
   xmlns:xlink="http://www.w3.org/1999/xlink"
   xmlns:sodipodi="http://sodipodi.sourceforge.net/DTD/sodipodi-0.dtd"
   xmlns:inkscape="http://www.inkscape.org/namespaces/inkscape"
   width="628.45648"
   height="652.93219"
   id="svg2"
   sodipodi:version="0.32"
   inkscape:version="0.45"
   sodipodi:docbase="/home/nico/version_0.112/images/archives"
   sodipodi:docname="logo3.svg"
   inkscape:export-filename="/home/nico/version_0.112/images/logo3.png"
   inkscape:export-xdpi="72"
   inkscape:export-ydpi="72"
   inkscape:output_extension="org.inkscape.output.svg.inkscape"
   version="1.0"
   sodipodi:modified="TRUE">
  <defs
     id="defs4">
    <linearGradient
       id="linearGradient20836">
      <stop
         id="stop20838"
         offset="0"
         style="stop-color:#125c6a;stop-opacity:0.90196079;" />
      <stop
         id="stop20840"
         offset="1"
         style="stop-color:#7027c2;stop-opacity:0.08627451;" />
    </linearGradient>
    <linearGradient
       id="linearGradient19945">
      <stop
         style="stop-color:#1f0c6e;stop-opacity:0.88627452;"
         offset="0"
         id="stop19947" />
      <stop
         style="stop-color:#106f84;stop-opacity:0.23921569;"
         offset="1"
         id="stop19949" />
    </linearGradient>
    <linearGradient
       id="linearGradient19054">
      <stop
         id="stop19056"
         offset="0"
         style="stop-color:#142366;stop-opacity:0.77678573;" />
      <stop
         id="stop19058"
         offset="1"
         style="stop-color:#1c6879;stop-opacity:0.39215687;" />
    </linearGradient>
    <linearGradient
       id="linearGradient16387">
      <stop
         id="stop16389"
         offset="0"
         style="stop-color:#0a3827;stop-opacity:1;" />
      <stop
         id="stop16391"
         offset="1"
         style="stop-color:#765d1b;stop-opacity:0.49803922;" />
    </linearGradient>
    <linearGradient
       id="linearGradient15484">
      <stop
         style="stop-color:#236036;stop-opacity:1;"
         offset="0"
         id="stop15486" />
      <stop
         style="stop-color:#93ac2c;stop-opacity:0.69803923;"
         offset="1"
         id="stop15488" />
    </linearGradient>
    <linearGradient
       id="linearGradient12782">
      <stop
         style="stop-color:white;stop-opacity:1;"
         offset="0"
         id="stop12784" />
      <stop
         id="stop12786"
         offset="0.41999999"
         style="stop-color:white;stop-opacity:0.98039216;" />
      <stop
         style="stop-color:#e0cad1;stop-opacity:0.8214286;"
         offset="1"
         id="stop12788" />
    </linearGradient>
    <linearGradient
       id="linearGradient11887">
      <stop
         id="stop11889"
         offset="0"
         style="stop-color:#fff0a9;stop-opacity:1;" />
      <stop
         style="stop-color:#ffea67;stop-opacity:1;"
         offset="0.5"
         id="stop11891" />
      <stop
         id="stop11893"
         offset="1"
         style="stop-color:#ffb668;stop-opacity:1;" />
    </linearGradient>
    <linearGradient
       id="linearGradient10091">
      <stop
         style="stop-color:#142366;stop-opacity:0.90178573;"
         offset="0"
         id="stop10093" />
      <stop
         style="stop-color:#152980;stop-opacity:0.23137255;"
         offset="1"
         id="stop10988" />
    </linearGradient>
    <linearGradient
       id="linearGradient2894">
      <stop
         style="stop-color:#ffffff;stop-opacity:1;"
         offset="0"
         id="stop2896" />
      <stop
         id="stop2902"
         offset="0.5"
         style="stop-color:#e7e9f3;stop-opacity:1;" />
      <stop
         style="stop-color:#c69999;stop-opacity:1;"
         offset="1"
         id="stop2898" />
    </linearGradient>
    <linearGradient
       inkscape:collect="always"
       xlink:href="#linearGradient2894"
       id="linearGradient2900"
       x1="333.5"
       y1="388.8642"
       x2="333.5"
       y2="581.87256"
       gradientUnits="userSpaceOnUse" />
    <linearGradient
       inkscape:collect="always"
       xlink:href="#linearGradient2894"
       id="linearGradient2906"
       x1="546.67029"
       y1="405.70258"
       x2="471.67029"
       y2="506.20258"
       gradientUnits="userSpaceOnUse" />
    <linearGradient
       inkscape:collect="always"
       xlink:href="#linearGradient2894"
       id="linearGradient2928"
       x1="161.5"
       y1="545.37494"
       x2="258.5"
       y2="563.37494"
       gradientUnits="userSpaceOnUse" />
    <linearGradient
       inkscape:collect="always"
       xlink:href="#linearGradient2894"
       id="linearGradient2936"
       gradientUnits="userSpaceOnUse"
       x1="406.5"
       y1="398.92969"
       x2="375.77551"
       y2="450.99719"
       gradientTransform="translate(-0.13776,1.9325)" />
    <linearGradient
       inkscape:collect="always"
       xlink:href="#linearGradient2894"
       id="linearGradient2956"
       x1="259.2016"
       y1="380.82224"
       x2="294.53342"
       y2="408.81323"
       gradientUnits="userSpaceOnUse" />
    <linearGradient
       inkscape:collect="always"
       xlink:href="#linearGradient2894"
       id="linearGradient2958"
       x1="303.23575"
       y1="319.93127"
       x2="230.45915"
       y2="410.43549"
       gradientUnits="userSpaceOnUse" />
    <linearGradient
       inkscape:collect="always"
       xlink:href="#linearGradient2894"
       id="linearGradient2966"
       x1="240.57753"
       y1="362.8508"
       x2="240.57753"
       y2="430.02917"
       gradientUnits="userSpaceOnUse" />
    <linearGradient
       inkscape:collect="always"
       xlink:href="#linearGradient2894"
       id="linearGradient2974"
       x1="431.06125"
       y1="377.77933"
       x2="385.98813"
       y2="439.29886"
       gradientUnits="userSpaceOnUse" />
    <linearGradient
       inkscape:collect="always"
       xlink:href="#linearGradient2894"
       id="linearGradient2982"
       x1="392.34036"
       y1="350.72137"
       x2="375.98001"
       y2="382.91101"
       gradientUnits="userSpaceOnUse" />
    <linearGradient
       inkscape:collect="always"
       xlink:href="#linearGradient2894"
       id="linearGradient2990"
       x1="449.72189"
       y1="337.19238"
       x2="427.79562"
       y2="365.12503"
       gradientUnits="userSpaceOnUse" />
    <linearGradient
       inkscape:collect="always"
       xlink:href="#linearGradient2894"
       id="linearGradient2998"
       x1="444.59021"
       y1="303.60321"
       x2="416.13272"
       y2="341.85757"
       gradientUnits="userSpaceOnUse" />
    <radialGradient
       inkscape:collect="always"
       xlink:href="#linearGradient19945"
       id="radialGradient10984"
       cx="191.68655"
       cy="388.20816"
       fx="191.68655"
       fy="388.20816"
       r="172.71683"
       gradientTransform="matrix(1,0,0,1.00147,0,-0.5708)"
       gradientUnits="userSpaceOnUse" />
    <radialGradient
       inkscape:collect="always"
       xlink:href="#linearGradient20836"
       id="radialGradient11883"
       cx="349.07944"
       cy="522.85345"
       fx="349.07944"
       fy="522.85345"
       r="314.20389"
       gradientTransform="matrix(1,0,0,0.99522,0,2.499009)"
       gradientUnits="userSpaceOnUse" />
    <radialGradient
       inkscape:collect="always"
       xlink:href="#linearGradient10091"
       id="radialGradient12780"
       cx="191.68655"
       cy="388.20816"
       fx="191.68655"
       fy="388.20816"
       r="172.71683"
       gradientTransform="matrix(1,0,0,1.00147,0,-0.5708)"
       gradientUnits="userSpaceOnUse" />
    <linearGradient
       inkscape:collect="always"
       xlink:href="#linearGradient11887"
       id="linearGradient12796"
       x1="325.5"
       y1="378.36218"
       x2="328"
       y2="460.36218"
       gradientUnits="userSpaceOnUse" />
    <linearGradient
       inkscape:collect="always"
       xlink:href="#linearGradient11887"
       id="linearGradient12816"
       x1="330.75"
       y1="418.36218"
       x2="333.5"
       y2="451.11218"
       gradientUnits="userSpaceOnUse" />
    <linearGradient
       inkscape:collect="always"
       xlink:href="#linearGradient11887"
       id="linearGradient12818"
       x1="372.75"
       y1="378.86218"
       x2="372.45233"
       y2="409.11218"
       gradientUnits="userSpaceOnUse" />
    <linearGradient
       inkscape:collect="always"
       xlink:href="#linearGradient12782"
       id="linearGradient15479"
       x1="337"
       y1="305.36218"
       x2="323"
       y2="572.36218"
       gradientUnits="userSpaceOnUse" />
    <linearGradient
       inkscape:collect="always"
       xlink:href="#linearGradient15484"
       id="linearGradient15490"
       x1="356"
       y1="512.36218"
       x2="365"
       y2="694.36218"
       gradientUnits="userSpaceOnUse"
       gradientTransform="translate(-22,-4)" />
    <linearGradient
       inkscape:collect="always"
       xlink:href="#linearGradient16387"
       id="linearGradient16385"
       x1="357"
       y1="504.36218"
       x2="390"
       y2="699.36218"
       gradientUnits="userSpaceOnUse"
       gradientTransform="translate(-22,-4)" />
  </defs>
  <sodipodi:namedview
     id="base"
     pagecolor="#ffffff"
     bordercolor="#666666"
     borderopacity="1.0"
     inkscape:pageopacity="0.0"
     inkscape:pageshadow="2"
     inkscape:zoom="0.8"
     inkscape:cx="374.97217"
     inkscape:cy="380.77087"
     inkscape:document-units="px"
     inkscape:current-layer="layer3"
     inkscape:window-width="1280"
     inkscape:window-height="949"
     inkscape:window-x="0"
     inkscape:window-y="25" />
  <metadata
     id="metadata7">
    <rdf:RDF>
      <cc:Work
         rdf:about="">
        <dc:format>image/svg+xml</dc:format>
        <dc:type
           rdf:resource="http://purl.org/dc/dcmitype/StillImage" />
      </cc:Work>
    </rdf:RDF>
  </metadata>
  <g
     inkscape:label="Calque 1"
     inkscape:groupmode="layer"
     id="layer1"
     style="display:none"
     sodipodi:insensitive="true"
     transform="translate(-34.844224,-182.6026)">
    <image
       y="285.33466"
       x="102.20913"
       id="image1999"
       height="481"
       width="481"
       sodipodi:absref="C:\Documents and Settings\Nico\Bureau\installation 1beta6.2\complements\fleur_medaillon.png"
       xlink:href="installation 1beta6.2\complements\fleur_medaillon.png" />
  </g>
  <g
     inkscape:groupmode="layer"
     id="layer3"
     inkscape:label="eau medaillon"
     style="display:inline"
     transform="translate(-34.844224,-182.6026)">
    <path
       sodipodi:type="star"
       style="opacity:1;fill:url(#radialGradient11883);fill-opacity:1;fill-rule:nonzero;stroke:none;stroke-width:2.5;stroke-linecap:round;stroke-linejoin:round;stroke-miterlimit:4;stroke-dasharray:none;stroke-dashoffset:0;stroke-opacity:1"
       id="path3890"
       sodipodi:sides="35"
       sodipodi:cx="349"
       sodipodi:cy="520.36218"
       sodipodi:r1="305.55032"
       sodipodi:r2="290.2728"
       sodipodi:arg1="0.71359606"
       sodipodi:arg2="0.80335585"
       inkscape:flatsided="false"
       inkscape:rounded="0.4"
       inkscape:randomized="0.05"
       d="M 569.13255,731.3619 C 561.55095,741.2655 557.36553,731.54737 548.41931,740.01462 C 539.4731,748.48187 538.16071,737.36858 528.49819,744.9379 C 518.83567,752.50722 517.21998,752.34613 506.51436,758.67075 C 495.80874,764.99537 517.84314,787.44011 506.75923,792.80699 C 495.67531,798.17388 477.0693,782.58141 465.40292,787.05989 C 453.73654,791.53836 464.6378,791.80099 453.28794,796.44022 C 441.93808,801.07944 437.28735,784.99134 425.8159,788.55359 C 414.34444,792.11583 407.69735,833.58509 395.44674,835.46472 C 383.19614,837.34434 377.88387,800.77496 365.78308,800.73181 C 353.68228,800.68866 338.89338,820.221 326.31946,819.14216 C 313.74555,818.06332 337.0825,798.62967 324.76002,796.61587 C 312.43754,794.60207 291.6643,816.071 279.79459,814.03439 C 267.92487,811.99777 281.34821,809.0596 269.81245,805.10967 C 258.27668,801.15974 249.48614,793.10092 238.62582,787.8163 C 227.76551,782.53169 229.62193,771.94798 218.44763,766.51235 C 207.27334,761.07673 187.06566,792.093 176.71737,784.8815 C 166.36908,777.67001 167.89165,760.90375 158.87895,752.76605 C 149.86625,744.62835 154.66148,752.80814 145.36812,744.32911 C 136.07475,735.85008 150.47404,719.88499 142.52912,710.6726 C 134.5842,701.46021 110.01038,702.62494 102.99683,692.43419 C 95.983284,682.24343 94.542087,690.99689 89.150425,680.25642 C 83.758762,669.51596 82.359462,656.12431 76.152044,645.1915 C 69.944626,634.25869 88.614358,649.98858 84.599557,638.33981 C 80.584756,626.69104 56.728679,610.27031 52.772325,598.69518 C 48.815971,587.12004 52.317905,595.02277 49.313545,582.83449 C 46.309184,570.64622 36.434357,547.58723 34.929131,535.48444 C 33.423905,523.38166 52.424007,525.45274 52.938304,513.28286 C 53.452602,501.11298 46.275462,493.9517 47.395084,481.91107 C 48.514706,469.87043 55.565554,480.39199 58.474148,468.14017 C 61.382743,455.88835 37.258234,463.89971 39.684962,451.75933 C 42.11169,439.61894 82.974797,426.39772 86.772785,414.76024 C 90.570773,403.12277 67.283791,389.27746 71.699209,377.99086 C 76.114628,366.70425 85.508925,384.82346 91.290585,373.684 C 97.072245,362.54455 89.797538,337.18628 96.902286,326.90455 C 104.00703,316.62283 109.10475,329.75527 117.26265,320.62359 C 125.42054,311.49191 112.55706,301.18362 121.75382,293.4632 C 130.95057,285.74279 150.36277,306.13364 159.86157,298.6246 C 169.36037,291.11556 181.46252,275.00603 192.36069,268.88552 C 203.25885,262.76501 211.39064,281.8008 222.53347,276.71173 C 233.6763,271.62266 203.26358,251.70732 215.02696,247.25843 C 226.79034,242.80955 236.77221,238.1747 248.13349,234.17503 C 259.49476,230.17536 257.70996,233.30923 269.91569,231.12434 C 282.12143,228.93946 298.92371,238.94351 311.14639,237.58774 C 323.36907,236.23197 327.32917,209.81116 339.51782,210.15833 C 351.70647,210.5055 333.95438,229.20864 346.32706,228.84359 C 358.69974,228.47853 387.34194,220.56431 399.47337,221.92588 C 411.60479,223.28746 385.96866,249.70283 398.06485,252.26925 C 410.16103,254.83566 440.85808,230.04806 452.82254,233.92495 C 464.787,237.80184 451.9738,241.92894 462.85613,247.08566 C 473.73847,252.24238 483.33727,241.8338 493.81879,248.2928 C 504.30032,254.7518 491.54818,281.42322 501.72353,288.43017 C 511.89888,295.43712 520.9468,278.92439 530.97322,285.84133 C 540.99964,292.75826 542.54485,291.76867 551.12264,300.67102 C 559.70043,309.57336 558.64283,295.77903 566.0343,305.58642 C 573.42577,315.39381 582.62881,349.58436 589.28948,359.63486 C 595.95015,369.68536 609.92983,347.28838 616.258,357.57608 C 622.58618,367.86378 617.22018,396.0048 623.25522,406.43562 C 629.29025,416.86643 633.02956,387.33018 637.25104,398.7282 C 641.47252,410.12623 633.39929,434.28021 636.90002,445.90275 C 640.40075,457.52529 640.97281,457.70566 643.79282,469.69831 C 646.61282,481.69096 647.04331,489.97279 648.69851,502.29247 C 650.3537,514.61216 664.09632,508.55815 663.26446,520.97516 C 662.43261,533.39216 643.88028,522.46574 643.60296,534.9034 C 643.32564,547.34107 648.97366,564.15671 647.07773,576.10658 C 645.18181,588.05645 629.6345,594.18226 626.46951,606.30843 C 623.30451,618.43459 632.17138,617.30931 628.44012,628.93075 C 624.70886,640.55218 602.62983,623.30136 596.64154,633.893 C 590.65325,644.48463 607.53311,660.42631 601.23141,670.9251 C 594.92971,681.42388 595.37701,691.10115 587.45996,700.70703 C 579.5429,710.31292 576.71415,721.4583 569.13255,731.3619 z " />
    <path
       sodipodi:type="star"
       style="opacity:1;fill:url(#radialGradient10984);fill-opacity:1;fill-rule:nonzero;stroke:none;stroke-width:2.5;stroke-linecap:round;stroke-linejoin:round;stroke-miterlimit:4;stroke-dasharray:none;stroke-dashoffset:0;stroke-opacity:1;display:inline"
       id="path8319"
       sodipodi:sides="35"
       sodipodi:cx="194"
       sodipodi:cy="387.36218"
       sodipodi:r1="170.3203"
       sodipodi:r2="153.28825"
       sodipodi:arg1="0.96488033"
       sodipodi:arg2="1.0546401"
       inkscape:flatsided="false"
       inkscape:rounded="0.4"
       inkscape:randomized="0.05"
       d="M 288.73812,535.85894 C 281.17385,540.50449 279.58556,524.28796 271.97063,528.90359 C 264.3557,533.51922 270.83806,533.75885 262.67776,536.86213 C 254.51746,539.96542 251.51504,522.14579 242.81655,524.99986 C 234.11806,527.85393 241.77407,548.72772 233.10382,551.40843 C 224.43358,554.08913 219.14186,538.85765 210.26883,540.4867 C 201.39579,542.11576 219.93869,560.35092 211.11785,561.15665 C 202.29702,561.96239 197.91566,540.65416 189.18629,539.80622 C 180.45692,538.95828 189.621,554.3314 180.71959,553.22061 C 171.81819,552.10983 173.9106,543.9441 164.97596,542.03791 C 156.04131,540.13172 156.58983,559.68559 148.38796,556.69652 C 140.18608,553.70745 139.9566,525.11984 131.49191,521.66599 C 123.02723,518.21214 120.42902,537.67008 112.56046,533.10722 C 104.6919,528.54436 115.14814,515.72704 107.61552,510.63845 C 100.0829,505.54986 90.723073,522.18873 83.523256,516.90722 C 76.323441,511.62571 100.82054,501.74252 94.695328,495.41697 C 88.570111,489.09143 80.002814,507.2317 73.850057,500.53848 C 67.697302,493.84526 70.48185,487.63013 64.928597,480.76157 C 59.375344,473.89301 51.913746,481.4945 46.675023,474.11355 C 41.436301,466.7326 69.883359,461.83965 65.881396,453.97837 C 61.879432,446.11708 35.740976,467.04736 32.244755,458.95158 C 28.748535,450.8558 49.64205,446.14641 47.595432,437.25994 C 45.548814,428.37346 28.042377,425.89599 25.676609,417.32858 C 23.310841,408.76117 37.565491,407.06648 36.196817,398.41289 C 34.828142,389.75931 24.856065,404.87433 25.07438,396.01589 C 25.292696,387.15746 39.2851,392.8664 39.429673,383.8396 C 39.574246,374.8128 17.573859,367.04747 19.03987,358.32072 C 20.505882,349.59398 42.610263,363.79493 45.005757,355.16943 C 47.401252,346.54393 37.41593,342.58409 40.26413,334.07605 C 43.112329,325.56802 47.191693,335.62352 50.823746,327.27858 C 54.455799,318.93363 41.902955,319.26187 46.352392,311.74361 C 50.801829,304.22535 68.132432,307.11199 73.652561,299.79549 C 79.17269,292.47899 59.312181,282.03985 65.333128,275.18481 C 71.354074,268.32977 81.42197,288.25483 87.740824,282.00055 C 94.059678,275.74628 73.231594,268.54156 80.121748,262.74175 C 87.0119,256.94193 100.04344,270.94115 107.16317,265.8381 C 114.2829,260.73505 97.457528,241.54507 105.02262,236.76622 C 112.5877,231.98737 115.21293,250.20584 123.11103,246.23853 C 131.00914,242.27122 129.51916,226.50848 137.73923,222.98341 C 145.95929,219.45834 146.48911,244.649 154.96152,242.18888 C 163.43394,239.72876 156.75704,228.97255 165.60594,227.16219 C 174.45484,225.35184 177.54544,240.12068 186.4348,239.6422 C 195.32416,239.16373 183.15713,215.47163 192.22496,215.23978 C 201.2928,215.00792 204.53013,231.62702 213.3158,233.07925 C 222.10146,234.53149 213.76536,215.42862 222.80483,216.58922 C 231.8443,217.74982 230.17239,237.59973 238.8295,240.16364 C 247.48661,242.72755 245.75794,219.04328 254.2243,222.16031 C 262.69066,225.27734 254.41012,246.15979 262.75822,249.68967 C 271.10631,253.21955 271.3951,237.13409 278.64756,242.42058 C 285.90001,247.70707 280.87182,268.82255 288.48925,273.85961 C 296.10668,278.89666 303.22981,255.6472 309.77168,261.9986 C 316.31354,268.35 304.87742,283.5564 310.7284,290.13335 C 316.57938,296.7103 318.13038,272.39686 323.84626,279.16839 C 329.56213,285.93991 314.03006,304.74578 318.76777,312.16123 C 323.50548,319.57669 347.48882,306.96854 350.99726,315.03645 C 354.5057,323.10436 339.05654,328.25145 342.12814,336.56251 C 345.19973,344.87357 362.35876,330.75695 364.27974,339.39679 C 366.20073,348.03663 345.0687,345.79262 347.23524,354.67693 C 349.40179,363.56124 356.15135,358.58882 356.50452,367.60382 C 356.8577,376.61881 342.09712,371.57988 341.69914,380.69234 C 341.30115,389.80481 363.26735,386.27785 362.85356,395.324 C 362.43978,404.37015 353.56132,407.58143 351.65415,416.35264 C 349.74697,425.12386 363.21889,417.26792 360.71262,426.03574 C 358.20635,434.80356 337.39023,422.56638 334.92968,431.36375 C 332.46913,440.16113 357.61747,442.11034 353.84052,450.17577 C 350.06357,458.24118 337.79741,447.73239 333.08229,455.32337 C 328.36718,462.91435 342.57376,468.98449 337.16183,475.8697 C 331.74989,482.75491 312.09121,472.52708 306.07508,478.95036 C 300.05896,485.37364 313.96801,494.06819 307.25401,499.84543 C 300.54,505.62268 301.81714,493.42178 294.59528,498.91692 C 287.37342,504.41205 296.30239,531.21338 288.73812,535.85894 z "
       transform="matrix(1.602142,0,0,1.546335,23.89102,-44.93764)" />
    <path
       sodipodi:type="star"
       style="opacity:1;fill:url(#radialGradient12780);fill-opacity:1;fill-rule:nonzero;stroke:none;stroke-width:2.5;stroke-linecap:round;stroke-linejoin:round;stroke-miterlimit:4;stroke-dasharray:none;stroke-dashoffset:0;stroke-opacity:1"
       id="path4777"
       sodipodi:sides="35"
       sodipodi:cx="194"
       sodipodi:cy="387.36218"
       sodipodi:r1="170.3203"
       sodipodi:r2="153.28825"
       sodipodi:arg1="0.96488033"
       sodipodi:arg2="1.0546401"
       inkscape:flatsided="false"
       inkscape:rounded="0.4"
       inkscape:randomized="0.05"
       d="M 288.73812,535.85894 C 281.17385,540.50449 279.58556,524.28796 271.97063,528.90359 C 264.3557,533.51922 270.83806,533.75885 262.67776,536.86213 C 254.51746,539.96542 251.51504,522.14579 242.81655,524.99986 C 234.11806,527.85393 241.77407,548.72772 233.10382,551.40843 C 224.43358,554.08913 219.14186,538.85765 210.26883,540.4867 C 201.39579,542.11576 219.93869,560.35092 211.11785,561.15665 C 202.29702,561.96239 197.91566,540.65416 189.18629,539.80622 C 180.45692,538.95828 189.621,554.3314 180.71959,553.22061 C 171.81819,552.10983 173.9106,543.9441 164.97596,542.03791 C 156.04131,540.13172 156.58983,559.68559 148.38796,556.69652 C 140.18608,553.70745 139.9566,525.11984 131.49191,521.66599 C 123.02723,518.21214 120.42902,537.67008 112.56046,533.10722 C 104.6919,528.54436 115.14814,515.72704 107.61552,510.63845 C 100.0829,505.54986 90.723073,522.18873 83.523256,516.90722 C 76.323441,511.62571 100.82054,501.74252 94.695328,495.41697 C 88.570111,489.09143 80.002814,507.2317 73.850057,500.53848 C 67.697302,493.84526 70.48185,487.63013 64.928597,480.76157 C 59.375344,473.89301 51.913746,481.4945 46.675023,474.11355 C 41.436301,466.7326 69.883359,461.83965 65.881396,453.97837 C 61.879432,446.11708 35.740976,467.04736 32.244755,458.95158 C 28.748535,450.8558 49.64205,446.14641 47.595432,437.25994 C 45.548814,428.37346 28.042377,425.89599 25.676609,417.32858 C 23.310841,408.76117 37.565491,407.06648 36.196817,398.41289 C 34.828142,389.75931 24.856065,404.87433 25.07438,396.01589 C 25.292696,387.15746 39.2851,392.8664 39.429673,383.8396 C 39.574246,374.8128 17.573859,367.04747 19.03987,358.32072 C 20.505882,349.59398 42.610263,363.79493 45.005757,355.16943 C 47.401252,346.54393 37.41593,342.58409 40.26413,334.07605 C 43.112329,325.56802 47.191693,335.62352 50.823746,327.27858 C 54.455799,318.93363 41.902955,319.26187 46.352392,311.74361 C 50.801829,304.22535 68.132432,307.11199 73.652561,299.79549 C 79.17269,292.47899 59.312181,282.03985 65.333128,275.18481 C 71.354074,268.32977 81.42197,288.25483 87.740824,282.00055 C 94.059678,275.74628 73.231594,268.54156 80.121748,262.74175 C 87.0119,256.94193 100.04344,270.94115 107.16317,265.8381 C 114.2829,260.73505 97.457528,241.54507 105.02262,236.76622 C 112.5877,231.98737 115.21293,250.20584 123.11103,246.23853 C 131.00914,242.27122 129.51916,226.50848 137.73923,222.98341 C 145.95929,219.45834 146.48911,244.649 154.96152,242.18888 C 163.43394,239.72876 156.75704,228.97255 165.60594,227.16219 C 174.45484,225.35184 177.54544,240.12068 186.4348,239.6422 C 195.32416,239.16373 183.15713,215.47163 192.22496,215.23978 C 201.2928,215.00792 204.53013,231.62702 213.3158,233.07925 C 222.10146,234.53149 213.76536,215.42862 222.80483,216.58922 C 231.8443,217.74982 230.17239,237.59973 238.8295,240.16364 C 247.48661,242.72755 245.75794,219.04328 254.2243,222.16031 C 262.69066,225.27734 254.41012,246.15979 262.75822,249.68967 C 271.10631,253.21955 271.3951,237.13409 278.64756,242.42058 C 285.90001,247.70707 280.87182,268.82255 288.48925,273.85961 C 296.10668,278.89666 303.22981,255.6472 309.77168,261.9986 C 316.31354,268.35 304.87742,283.5564 310.7284,290.13335 C 316.57938,296.7103 318.13038,272.39686 323.84626,279.16839 C 329.56213,285.93991 314.03006,304.74578 318.76777,312.16123 C 323.50548,319.57669 347.48882,306.96854 350.99726,315.03645 C 354.5057,323.10436 339.05654,328.25145 342.12814,336.56251 C 345.19973,344.87357 362.35876,330.75695 364.27974,339.39679 C 366.20073,348.03663 345.0687,345.79262 347.23524,354.67693 C 349.40179,363.56124 356.15135,358.58882 356.50452,367.60382 C 356.8577,376.61881 342.09712,371.57988 341.69914,380.69234 C 341.30115,389.80481 363.26735,386.27785 362.85356,395.324 C 362.43978,404.37015 353.56132,407.58143 351.65415,416.35264 C 349.74697,425.12386 363.21889,417.26792 360.71262,426.03574 C 358.20635,434.80356 337.39023,422.56638 334.92968,431.36375 C 332.46913,440.16113 357.61747,442.11034 353.84052,450.17577 C 350.06357,458.24118 337.79741,447.73239 333.08229,455.32337 C 328.36718,462.91435 342.57376,468.98449 337.16183,475.8697 C 331.74989,482.75491 312.09121,472.52708 306.07508,478.95036 C 300.05896,485.37364 313.96801,494.06819 307.25401,499.84543 C 300.54,505.62268 301.81714,493.42178 294.59528,498.91692 C 287.37342,504.41205 296.30239,531.21338 288.73812,535.85894 z "
       transform="matrix(1.451606,0,0,1.494303,57.43315,-52.39251)" />
  </g>
  <g
     inkscape:groupmode="layer"
     id="layer4"
     inkscape:label="feuilles"
     transform="translate(-34.844224,-182.6026)">
    <path
       style="fill:url(#linearGradient15490);fill-opacity:1;fill-rule:evenodd;stroke:none;stroke-width:1px;stroke-linecap:butt;stroke-linejoin:miter;stroke-opacity:1"
       d="M 243,495.36218 C 231,505.36218 226,523.36218 226,523.36218 C 226,523.36218 235,520.36218 203,526.36218 C 171,532.36218 117,548.36218 118,559.36218 C 119,570.36218 129,572.36218 129,572.36218 C 156,578.36218 159,573.36218 185,566.36218 C 211,559.36218 290,539.36218 290,539.36218 C 290,539.36218 303,541.36218 287,551.36218 C 271,561.36218 268,559.36218 260,565.36218 C 252,571.36218 241,611.36218 234,630.36218 C 227,649.36218 215,682.36218 215,690.36218 C 215,698.36218 215,711.36218 221,714.36218 C 227,717.36218 248,709.36218 251,703.36218 C 267,721.36218 278,716.36218 286,704.36218 C 294,692.36218 318,654.36218 318,654.36218 C 318,691.36218 359,728.36218 358,736.36218 C 357,744.36218 355,752.36218 367,751.36218 C 379,750.36218 368,712.36218 376,716.36218 C 384,720.36218 390,723.36218 390,716.36218 C 390,709.36218 400,670.36218 393,657.36218 C 393,657.36218 414,682.36218 420,682.36218 C 426,682.36218 435,674.36218 434,666.36218 C 433,658.36218 426,624.36218 426,624.36218 C 426,624.36218 437,644.36218 445,646.36218 C 453,648.36218 461,644.36218 460,638.36218 C 459,632.36218 456,617.36218 456,617.36218 C 456,617.36218 474,639.36218 480,642.36218 C 486,645.36218 510,664.36218 517,650.36218 C 524,636.36218 512,610.36218 504,602.36218 C 496,594.36218 476,577.36218 465,572.36218 C 454,567.36218 422,548.36218 431,546.36218 C 440,544.36218 443,542.36218 443,542.36218 C 443,542.36218 443,531.36218 421,517.36218 C 421,517.36218 435,501.36218 445,499.36218 C 455,497.36218 471,497.36218 483,490.36218 C 495,483.36218 522,510.36218 525,500.36218 C 528,490.36218 517,460.36218 504,458.36218 C 491,456.36218 441,459.36218 427,462.36218 C 413,465.36218 386,476.36218 376,481.36218 C 366,486.36218 242,495.36218 243,495.36218 z "
       id="path15482"
       sodipodi:nodetypes="ccsscscssssss" />
    <path
       style="fill:url(#linearGradient16385);fill-opacity:1;fill-rule:evenodd;stroke:none;stroke-width:1px;stroke-linecap:butt;stroke-linejoin:miter;stroke-opacity:1"
       d="M 290,553.36218 C 268,563.36218 277,551.36218 262,567.36218 C 247,583.36218 233,626.36218 243,614.36218 C 253,602.36218 266,585.36218 266,585.36218 C 266,585.36218 249,639.36218 251,652.36218 C 253,665.36218 287,612.36218 287,612.36218 C 287,612.36218 295,661.36218 306,661.36218 C 317,661.36218 317,643.36218 317,643.36218 L 327,651.36218 C 327,651.36218 334,644.36218 335,635.36218 C 336,626.36218 342,652.36218 338,654.36218 C 357,646.36218 342,603.36218 342,603.36218 C 342,603.36218 363,644.36218 368,646.36218 C 373,648.36218 356,628.36218 362,620.36218 L 370,632.36218 L 373,632.36218 L 373,620.36218 C 373,620.36218 382,651.36218 387,651.36218 C 392,651.36218 388,641.36218 388,635.36218 C 388,629.36218 400,640.36218 404,646.36218 C 408,652.36218 395,624.36218 391,617.36218 C 387,610.36218 398,599.36218 407,608.36218 C 416,617.36218 420,633.36218 420,633.36218 C 420,633.36218 413,606.36218 419,609.36218 C 425,612.36218 436,635.36218 441,637.36218 C 446,639.36218 451,645.36218 454,641.36218 C 457,637.36218 440,625.36218 449,609.36218 C 458,593.36218 470,590.36218 477,590.36218 C 484,590.36218 511,613.36218 509,619.36218 C 507,625.36218 501,631.36218 494,632.36218 C 487,633.36218 497,654.36218 507,649.36218 C 531,634.36218 511,617.36218 511,617.36218 C 498,596.36218 463,577.36218 460,571.36218 C 460,587.36218 464,591.36218 454,586.36218 C 444,581.36218 464,575.36218 445,563.36218 C 445,563.36218 426,562.36218 424,545.36218 C 422,528.36218 406,513.36218 406,513.36218 L 240,494.36218 C 240,494.36218 246,483.36218 238,499.36218 C 230,515.36218 230,524.36218 230,532.36218 C 230,540.36218 290,552.36218 290,553.36218 z "
       id="path15492" />
    <path
       sodipodi:type="star"
       style="opacity:1;fill:#ffffff;fill-opacity:1;fill-rule:nonzero;stroke:none;stroke-width:2.5;stroke-linecap:round;stroke-linejoin:round;stroke-miterlimit:4;stroke-dasharray:none;stroke-dashoffset:0;stroke-opacity:1"
       id="path18163"
       sodipodi:sides="105"
       sodipodi:cx="292"
       sodipodi:cy="663.36218"
       sodipodi:r1="13.453624"
       sodipodi:r2="1.3453624"
       sodipodi:arg1="0.7328151"
       sodipodi:arg2="0.76273503"
       inkscape:flatsided="false"
       inkscape:rounded="0"
       inkscape:randomized="0"
       d="M 302,672.36218 L 292.97263,664.2917 L 301.44386,672.94412 L 292.9153,664.3482 L 300.85392,673.49175 L 292.85469,664.40117 L 300.23228,674.00312 L 292.79103,664.45043 L 299.58118,674.4764 L 292.72453,664.49579 L 298.90293,674.90989 L 292.65544,664.53709 L 298.19998,675.30204 L 292.584,664.57418 L 297.47482,675.65146 L 292.51047,664.60694 L 296.73008,675.95688 L 292.43512,664.63524 L 295.96839,676.21721 L 292.35821,664.65898 L 295.19251,676.43153 L 292.28001,664.67808 L 294.40519,676.59906 L 292.20081,664.69247 L 293.60927,676.71921 L 292.1209,664.7021 L 292.80758,676.79155 L 292.04055,664.70693 L 292.003,676.81581 L 291.96005,664.70695 L 291.19841,676.79191 L 291.8797,664.70216 L 290.3967,676.71993 L 291.79978,664.69256 L 289.60072,676.60014 L 291.72058,664.67821 L 288.81333,676.43296 L 291.64237,664.65914 L 288.03734,676.21898 L 291.56545,664.63543 L 287.27555,675.95899 L 291.49008,664.60717 L 286.53066,675.6539 L 291.41654,664.57444 L 285.80536,675.30481 L 291.34509,664.53738 L 285.10222,674.91297 L 291.27598,664.49611 L 284.42378,674.47978 L 291.20946,664.45078 L 283.77247,674.00679 L 291.14577,664.40155 L 283.1506,673.4957 L 291.08514,664.34861 L 282.56041,672.94833 L 291.02779,664.29213 L 282.00402,672.36665 L 290.97391,664.23232 L 281.48341,671.75273 L 290.92371,664.1694 L 281.00044,671.10877 L 290.87736,664.10359 L 280.55685,670.43709 L 290.83503,664.03512 L 280.15422,669.74008 L 290.79687,663.96425 L 279.794,669.02023 L 290.76302,663.89122 L 279.47747,668.28014 L 290.7336,663.8163 L 279.20577,667.52244 L 290.7087,663.73975 L 278.97987,666.74984 L 290.68844,663.66185 L 278.80058,665.96512 L 290.67286,663.58287 L 278.66854,665.17108 L 290.66204,663.50311 L 278.58422,664.37057 L 290.65601,663.42284 L 278.54793,663.56644 L 290.65478,663.34236 L 278.55979,662.76159 L 290.65838,663.26194 L 278.61976,661.95888 L 290.66677,663.18189 L 278.72764,661.1612 L 290.67994,663.10248 L 278.88302,660.3714 L 290.69784,663.024 L 279.08536,659.5923 L 290.72039,662.94673 L 279.33393,658.8267 L 290.74753,662.87095 L 279.62784,658.07733 L 290.77915,662.79692 L 279.96604,657.34689 L 290.81514,662.72492 L 280.34732,656.63797 L 290.85537,662.6552 L 280.77031,655.95313 L 290.8997,662.58801 L 281.2335,655.29481 L 290.94797,662.5236 L 281.73524,654.66537 L 291,662.46218 L 282.27372,654.06706 L 291.05561,662.40399 L 282.84701,653.50202 L 291.11461,662.34923 L 283.45307,652.97228 L 291.17677,662.29809 L 284.08973,652.47974 L 291.24188,662.25076 L 284.7547,652.02615 L 291.30971,662.20741 L 285.44561,651.61314 L 291.38,662.1682 L 286.15999,651.24219 L 291.45252,662.13326 L 286.89527,650.91463 L 291.52699,662.10271 L 287.64882,650.63162 L 291.60316,662.07668 L 288.41795,650.39419 L 291.68075,662.05525 L 289.1999,650.20318 L 291.75948,662.03849 L 289.99187,650.05927 L 291.83907,662.02648 L 290.79104,649.96299 L 291.91924,662.01925 L 291.59453,649.91467 L 291.9997,662.01682 L 292.39947,649.91449 L 292.08016,662.01921 L 293.20298,649.96245 L 292.16033,662.02641 L 294.00219,650.05838 L 292.23993,662.03839 L 294.79423,650.20193 L 292.31867,662.05511 L 295.57627,650.39259 L 292.39627,662.0765 L 296.3455,650.62968 L 292.47245,662.1025 L 297.09918,650.91235 L 292.54693,662.13301 L 297.8346,651.23958 L 292.61946,662.16792 L 298.54914,651.61022 L 292.68978,662.2071 L 299.24024,652.02292 L 292.75762,662.25042 L 299.90541,652.47621 L 292.82275,662.29772 L 300.54229,652.96847 L 292.88494,662.34883 L 301.14859,653.49794 L 292.94396,662.40357 L 301.72213,654.06272 L 292.9996,662.46174 L 302.26088,654.66078 L 293.05166,662.52313 L 302.76289,655.29 L 293.09996,662.58752 L 303.22638,655.94812 L 293.14432,662.65469 L 303.64968,656.63277 L 293.18458,662.72439 L 304.03127,657.34151 L 293.2206,662.79638 L 304.3698,658.07181 L 293.25225,662.87039 L 304.66405,658.82105 L 293.27942,662.94616 L 304.91296,659.58654 L 293.30201,663.02342 L 305.11564,660.36554 L 293.31994,663.10189 L 305.27138,661.15528 L 293.33315,663.18129 L 305.37961,661.95291 L 293.34158,663.26134 L 305.43994,662.75559 L 293.34521,663.34176 L 305.45216,663.56044 L 293.34402,663.42224 L 305.41623,664.36458 L 293.33802,663.50251 L 305.33227,665.16513 L 293.32724,663.58228 L 305.20058,665.95923 L 293.3117,663.66126 L 305.02164,666.74403 L 293.29146,663.73917 L 304.79608,667.51673 L 293.26661,663.81573 L 304.52472,668.27455 L 293.23722,663.89067 L 304.20852,669.01479 L 293.2034,663.96371 L 303.84862,669.73479 L 293.16527,664.0346 L 303.44631,670.43198 L 293.12297,664.10309 L 303.00302,671.10386 L 293.07665,664.16892 L 302.52034,671.74803 L 293.02648,664.23186 L 302,672.36218 z "
       transform="matrix(1.706642,0,0,1.818118,15.15362,-713.7033)" />
    <path
       sodipodi:type="star"
       style="opacity:1;fill:#ffffff;fill-opacity:1;fill-rule:nonzero;stroke:none;stroke-width:2.5;stroke-linecap:round;stroke-linejoin:round;stroke-miterlimit:4;stroke-dasharray:none;stroke-dashoffset:0;stroke-opacity:1"
       id="path19050"
       sodipodi:sides="200"
       sodipodi:cx="292"
       sodipodi:cy="663.36218"
       sodipodi:r1="13.453624"
       sodipodi:r2="1.3453624"
       sodipodi:arg1="0.7328151"
       sodipodi:arg2="0.74852306"
       inkscape:flatsided="false"
       inkscape:rounded="0"
       inkscape:randomized="0"
       d="M 302,672.36218 L 292.98574,664.27778 L 301.71237,672.67185 L 292.95649,664.30829 L 301.41515,672.97233 L 292.9263,664.33787 L 301.10864,673.26332 L 292.8952,664.36648 L 300.79315,673.54455 L 292.86321,664.39411 L 300.46897,673.81572 L 292.83037,664.42071 L 300.13644,674.07658 L 292.79671,664.44627 L 299.79588,674.32687 L 292.76227,664.47076 L 299.44762,674.56633 L 292.72707,664.49416 L 299.09202,674.79474 L 292.69116,664.51644 L 298.72941,675.01186 L 292.65456,664.53758 L 298.36017,675.21749 L 292.61732,664.55756 L 297.98464,675.41142 L 292.57946,664.57636 L 297.60322,675.59345 L 292.54104,664.59396 L 297.21626,675.76342 L 292.50208,664.61035 L 296.82415,675.92115 L 292.46263,664.6255 L 296.42728,676.06648 L 292.42272,664.63941 L 296.02605,676.19927 L 292.38239,664.65206 L 295.62084,676.3194 L 292.34169,664.66343 L 295.21206,676.42674 L 292.30065,664.67352 L 294.8001,676.52119 L 292.25931,664.68232 L 294.38539,676.60265 L 292.21771,664.68981 L 293.96832,676.67104 L 292.1759,664.696 L 293.5493,676.7263 L 292.13392,664.70086 L 293.12876,676.76837 L 292.0918,664.70441 L 292.70711,676.79721 L 292.0496,664.70663 L 292.28475,676.81279 L 292.00734,664.70752 L 291.86212,676.8151 L 291.96508,664.70709 L 291.43962,676.80413 L 291.92286,664.70533 L 291.01768,676.7799 L 291.8807,664.70225 L 290.5967,676.74242 L 291.83867,664.69784 L 290.17711,676.69174 L 291.7968,664.69211 L 289.75932,676.6279 L 291.75512,664.68507 L 289.34374,676.55098 L 291.71369,664.67673 L 288.93078,676.46103 L 291.67254,664.66709 L 288.52085,676.35816 L 291.63171,664.65616 L 288.11435,676.24247 L 291.59125,664.64395 L 287.71169,676.11406 L 291.55119,664.63048 L 287.31326,675.97307 L 291.51158,664.61575 L 286.91945,675.81963 L 291.47244,664.59979 L 286.53066,675.6539 L 291.43383,664.58261 L 286.14727,675.47604 L 291.39577,664.56423 L 285.76965,675.28622 L 291.35831,664.54465 L 285.39818,675.08464 L 291.32149,664.52391 L 285.03323,674.87149 L 291.28533,664.50203 L 284.67515,674.64698 L 291.24988,664.47902 L 284.3243,674.41133 L 291.21517,664.4549 L 283.98103,674.16478 L 291.18123,664.42971 L 283.64566,673.90756 L 291.14811,664.40347 L 283.31855,673.63994 L 291.11582,664.3762 L 283,673.36218 L 291.0844,664.34792 L 282.69033,673.07455 L 291.05389,664.31868 L 282.38985,672.77734 L 291.02432,664.28849 L 282.09886,672.47083 L 290.9957,664.25738 L 281.81764,672.15533 L 290.96808,664.2254 L 281.54646,671.83116 L 290.94147,664.19256 L 281.2856,671.49862 L 290.91591,664.1589 L 281.03532,671.15806 L 290.89142,664.12445 L 280.79585,670.80981 L 290.86803,664.08925 L 280.56745,670.4542 L 290.84575,664.05334 L 280.35032,670.09159 L 290.82461,664.01674 L 280.14469,669.72235 L 290.80463,663.9795 L 279.95077,669.34683 L 290.78582,663.94165 L 279.76873,668.9654 L 290.76822,663.90322 L 279.59876,668.57844 L 290.75184,663.86426 L 279.44104,668.18633 L 290.73668,663.82481 L 279.2957,667.78947 L 290.72277,663.7849 L 279.16291,667.38823 L 290.71013,663.74457 L 279.04278,666.98302 L 290.69875,663.70387 L 278.93544,666.57424 L 290.68866,663.66283 L 278.84099,666.16229 L 290.67986,663.62149 L 278.75953,665.74757 L 290.67237,663.57989 L 278.69114,665.3305 L 290.66619,663.53809 L 278.63588,664.91149 L 290.66132,663.4961 L 278.59381,664.49094 L 290.65777,663.45399 L 278.56497,664.06929 L 290.65555,663.41178 L 278.54939,663.64694 L 290.65466,663.36953 L 278.54708,663.2243 L 290.65509,663.32727 L 278.55805,662.8018 L 290.65685,663.28504 L 278.58229,662.37986 L 290.65994,663.24289 L 278.61976,661.95888 L 290.66435,663.20085 L 278.67044,661.53929 L 290.67007,663.15898 L 278.73428,661.1215 L 290.67711,663.11731 L 278.81121,660.70592 L 290.68546,663.07587 L 278.90115,660.29296 L 290.6951,663.03472 L 279.00402,659.88303 L 290.70603,662.9939 L 279.11972,659.47653 L 290.71823,662.95343 L 279.24812,659.07387 L 290.73171,662.91337 L 279.38911,658.67544 L 290.74643,662.87376 L 279.54255,658.28164 L 290.76239,662.83462 L 279.70828,657.89284 L 290.77957,662.79601 L 279.88614,657.50945 L 290.79796,662.75795 L 280.07596,657.13183 L 290.81753,662.7205 L 280.27754,656.76036 L 290.83827,662.68367 L 280.4907,656.39541 L 290.86015,662.64751 L 280.71521,656.03733 L 290.88317,662.61206 L 280.95085,655.68648 L 290.90728,662.57735 L 281.19741,655.34321 L 290.93247,662.54342 L 281.45462,655.00785 L 290.95871,662.51029 L 281.72224,654.68073 L 290.98599,662.478 L 282,654.36218 L 291.01426,662.44659 L 282.28763,654.05252 L 291.04351,662.41608 L 282.58485,653.75204 L 291.0737,662.3865 L 282.89136,653.46104 L 291.1048,662.35788 L 283.20685,653.17982 L 291.13679,662.33026 L 283.53103,652.90864 L 291.16963,662.30366 L 283.86356,652.64778 L 291.20329,662.27809 L 284.20412,652.3975 L 291.23773,662.2536 L 284.55238,652.15804 L 291.27293,662.23021 L 284.90798,651.92963 L 291.30884,662.20793 L 285.27059,651.7125 L 291.34544,662.18679 L 285.63983,651.50688 L 291.38268,662.16681 L 286.01536,651.31295 L 291.42054,662.14801 L 286.39678,651.13091 L 291.45896,662.13041 L 286.78374,650.96095 L 291.49792,662.11402 L 287.17585,650.80322 L 291.53737,662.09886 L 287.57272,650.65789 L 291.57728,662.08496 L 287.97395,650.52509 L 291.61761,662.07231 L 288.37916,650.40496 L 291.65831,662.06093 L 288.78794,650.29762 L 291.69935,662.05084 L 289.1999,650.20318 L 291.74069,662.04205 L 289.61461,650.12172 L 291.78229,662.03455 L 290.03168,650.05332 L 291.8241,662.02837 L 290.4507,649.99806 L 291.86608,662.0235 L 290.87124,649.95599 L 291.9082,662.01996 L 291.29289,649.92715 L 291.9504,662.01773 L 291.71525,649.91157 L 291.99266,662.01684 L 292.13788,649.90927 L 292.03492,662.01727 L 292.56038,649.92023 L 292.07714,662.01903 L 292.98232,649.94447 L 292.1193,662.02212 L 293.4033,649.98195 L 292.16133,662.02653 L 293.82289,650.03263 L 292.2032,662.03225 L 294.24068,650.09646 L 292.24488,662.03929 L 294.65626,650.17339 L 292.28631,662.04764 L 295.06922,650.26333 L 292.32746,662.05728 L 295.47915,650.3662 L 292.36829,662.06821 L 295.88565,650.4819 L 292.40875,662.08042 L 296.28831,650.61031 L 292.44881,662.09389 L 296.68674,650.7513 L 292.48842,662.10861 L 297.08055,650.90473 L 292.52756,662.12457 L 297.46934,651.07046 L 292.56617,662.14175 L 297.85273,651.24833 L 292.60423,662.16014 L 298.23035,651.43814 L 292.64169,662.17971 L 298.60182,651.63973 L 292.67851,662.20045 L 298.96677,651.85288 L 292.71467,662.22234 L 299.32485,652.07739 L 292.75012,662.24535 L 299.6757,652.31304 L 292.78483,662.26946 L 300.01897,652.55959 L 292.81877,662.29465 L 300.35434,652.8168 L 292.85189,662.3209 L 300.68145,653.08442 L 292.88418,662.34817 L 301,653.36218 L 292.9156,662.37644 L 301.30967,653.64981 L 292.94611,662.40569 L 301.61015,653.94703 L 292.97568,662.43588 L 301.90114,654.25354 L 293.0043,662.46698 L 302.18236,654.56903 L 293.03192,662.49897 L 302.45354,654.89321 L 293.05853,662.53181 L 302.7144,655.22574 L 293.08409,662.56547 L 302.96468,655.5663 L 293.10858,662.59991 L 303.20415,655.91456 L 293.13197,662.63511 L 303.43255,656.27017 L 293.15425,662.67103 L 303.64968,656.63277 L 293.17539,662.70762 L 303.85531,657.00202 L 293.19537,662.74487 L 304.04923,657.37754 L 293.21418,662.78272 L 304.23127,657.75897 L 293.23178,662.82114 L 304.40124,658.14593 L 293.24816,662.8601 L 304.55896,658.53803 L 293.26332,662.89955 L 304.7043,658.9349 L 293.27723,662.93946 L 304.83709,659.33614 L 293.28987,662.97979 L 304.95722,659.74134 L 293.30125,663.0205 L 305.06456,660.15013 L 293.31134,663.06154 L 305.15901,660.56208 L 293.32014,663.10288 L 305.24047,660.9768 L 293.32763,663.14447 L 305.30886,661.39387 L 293.33381,663.18628 L 305.36412,661.81288 L 293.33868,663.22826 L 305.40619,662.23342 L 293.34223,663.27038 L 305.43503,662.65508 L 293.34445,663.31258 L 305.45061,663.07743 L 293.34534,663.35484 L 305.45292,663.50006 L 293.34491,663.3971 L 305.44195,663.92256 L 293.34315,663.43933 L 305.41771,664.34451 L 293.34006,663.48148 L 305.38024,664.76548 L 293.33565,663.52351 L 305.32956,665.18507 L 293.32993,663.56539 L 305.26572,665.60287 L 293.32289,663.60706 L 305.18879,666.01845 L 293.31454,663.64849 L 305.09885,666.43141 L 293.3049,663.68964 L 304.99598,666.84134 L 293.29397,663.73047 L 304.88028,667.24783 L 293.28177,663.77093 L 304.75188,667.6505 L 293.26829,663.81099 L 304.61089,668.04893 L 293.25357,663.85061 L 304.45745,668.44273 L 293.23761,663.88974 L 304.29172,668.83152 L 293.22043,663.92836 L 304.11386,669.21491 L 293.20204,663.96641 L 303.92404,669.59253 L 293.18247,664.00387 L 303.72246,669.964 L 293.16173,664.0407 L 303.5093,670.32895 L 293.13985,664.07685 L 303.28479,670.68703 L 293.11683,664.1123 L 303.04915,671.03788 L 293.09272,664.14701 L 302.80259,671.38116 L 293.06753,664.18095 L 302.54538,671.71652 L 293.04129,664.21408 L 302.27776,672.04363 L 293.01401,664.24636 L 302,672.36218 z "
       transform="matrix(3.119059,0,0,2.821786,-430.2654,-1264.506)" />
    <path
       sodipodi:type="star"
       style="opacity:1;fill:#ffffff;fill-opacity:1;fill-rule:nonzero;stroke:none;stroke-width:2.5;stroke-linecap:round;stroke-linejoin:round;stroke-miterlimit:4;stroke-dasharray:none;stroke-dashoffset:0;stroke-opacity:1"
       id="path19052"
       sodipodi:sides="120"
       sodipodi:cx="292"
       sodipodi:cy="663.36218"
       sodipodi:r1="13.453624"
       sodipodi:r2="1.3453624"
       sodipodi:arg1="0.7328151"
       sodipodi:arg2="0.75899504"
       inkscape:flatsided="false"
       inkscape:rounded="0"
       inkscape:randomized="0"
       d="M 302,672.36218 L 292.9761,664.28805 L 301.51527,672.87321 L 292.9263,664.33787 L 301.00446,673.35816 L 292.87397,664.38501 L 300.46897,673.81572 L 292.81924,664.42935 L 299.91027,674.24463 L 292.76227,664.47076 L 299.32989,674.64371 L 292.70321,664.50914 L 298.72941,675.01186 L 292.64222,664.54437 L 298.11049,675.34809 L 292.57946,664.57636 L 297.47482,675.65146 L 292.51513,664.60502 L 296.82415,675.92115 L 292.44937,664.63028 L 296.16025,676.15641 L 292.38239,664.65206 L 295.48495,676.35661 L 292.31436,664.6703 L 294.8001,676.52119 L 292.24547,664.68496 L 294.10758,676.6497 L 292.1759,664.696 L 293.40927,676.74179 L 292.10586,664.70337 L 292.70711,676.79721 L 292.03552,664.70708 L 292.003,676.81581 L 291.96508,664.70709 L 291.29889,676.79753 L 291.89474,664.70342 L 290.5967,676.74242 L 291.82469,664.69607 L 289.89836,676.65064 L 291.75512,664.68507 L 289.20577,676.52244 L 291.68622,664.67044 L 288.52085,676.35816 L 291.61818,664.65223 L 287.84546,676.15827 L 291.55119,664.63048 L 287.18146,675.9233 L 291.48543,664.60525 L 286.53066,675.6539 L 291.42108,664.57662 L 285.89486,675.35081 L 291.35831,664.54465 L 285.27579,675.01486 L 291.29731,664.50945 L 284.67515,674.64698 L 291.23823,664.4711 L 284.09459,674.24816 L 291.18123,664.42971 L 283.53569,673.8195 L 291.12649,664.3854 L 283,673.36218 L 291.07413,664.33828 L 282.48897,672.87745 L 291.02432,664.28849 L 282.00402,672.36665 L 290.97717,664.23615 L 281.54646,671.83116 L 290.93284,664.18143 L 281.11755,671.27245 L 290.89142,664.12445 L 280.71848,670.69207 L 290.85305,664.06539 L 280.35032,670.09159 L 290.81782,664.0044 L 280.0141,669.47268 L 290.78582,663.94165 L 279.71072,668.83701 L 290.75716,663.87731 L 279.44104,668.18633 L 290.73191,663.81156 L 279.20577,667.52244 L 290.71013,663.74457 L 279.00557,666.84714 L 290.69188,663.67654 L 278.84099,666.16229 L 290.67722,663.60765 L 278.71248,665.46976 L 290.66619,663.53809 L 278.62039,664.77146 L 290.65881,663.46804 L 278.56497,664.06929 L 290.65511,663.3977 L 278.54638,663.36519 L 290.65509,663.32727 L 278.56466,662.66107 L 290.65876,663.25693 L 278.61976,661.95888 L 290.66611,663.18688 L 278.71154,661.26054 L 290.67711,663.11731 L 278.83975,660.56795 L 290.69174,663.04841 L 279.00402,659.88303 L 290.70995,662.98037 L 279.20392,659.20764 L 290.73171,662.91337 L 279.43888,658.54364 L 290.75693,662.84761 L 279.70828,657.89284 L 290.78557,662.78326 L 280.01137,657.25704 L 290.81753,662.7205 L 280.34732,656.63797 L 290.85273,662.65949 L 280.71521,656.03733 L 290.89108,662.60041 L 281.11403,655.45677 L 290.93247,662.54342 L 281.54268,654.89788 L 290.97678,662.48867 L 282,654.36218 L 291.0239,662.43631 L 282.48473,653.85116 L 291.0737,662.3865 L 282.99554,653.3662 L 291.12603,662.33936 L 283.53103,652.90864 L 291.18076,662.29502 L 284.08973,652.47974 L 291.23773,662.2536 L 284.67011,652.08066 L 291.29679,662.21523 L 285.27059,651.7125 L 291.35778,662.18 L 285.88951,651.37628 L 291.42054,662.14801 L 286.52518,651.07291 L 291.48487,662.11934 L 287.17585,650.80322 L 291.55063,662.09409 L 287.83975,650.56795 L 291.61761,662.07231 L 288.51505,650.36776 L 291.68564,662.05406 L 289.1999,650.20318 L 291.75453,662.0394 L 289.89242,650.07467 L 291.8241,662.02837 L 290.59073,649.98257 L 291.89414,662.02099 L 291.29289,649.92715 L 291.96448,662.01729 L 291.997,649.90856 L 292.03492,662.01727 L 292.70111,649.92684 L 292.10526,662.02094 L 293.4033,649.98195 L 292.17531,662.02829 L 294.10164,650.07373 L 292.24488,662.03929 L 294.79423,650.20193 L 292.31378,662.05392 L 295.47915,650.3662 L 292.38182,662.07214 L 296.15454,650.5661 L 292.44881,662.09389 L 296.81854,650.80107 L 292.51457,662.11911 L 297.46934,651.07046 L 292.57892,662.14775 L 298.10514,651.37355 L 292.64169,662.17971 L 298.72421,651.7095 L 292.70269,662.21492 L 299.32485,652.07739 L 292.76177,662.25326 L 299.90541,652.47621 L 292.81877,662.29465 L 300.46431,652.90486 L 292.87351,662.33897 L 301,653.36218 L 292.92587,662.38608 L 301.51103,653.84691 L 292.97568,662.43588 L 301.99598,654.35772 L 293.02283,662.48821 L 302.45354,654.89321 L 293.06716,662.54294 L 302.88245,655.45191 L 293.10858,662.59991 L 303.28152,656.0323 L 293.14695,662.65898 L 303.64968,656.63277 L 293.18218,662.71997 L 303.9859,657.25169 L 293.21418,662.78272 L 304.28928,657.88736 L 293.24284,662.84706 L 304.55896,658.53803 L 293.26809,662.91281 L 304.79423,659.20193 L 293.28987,662.97979 L 304.99443,659.87723 L 293.30812,663.04782 L 305.15901,660.56208 L 293.32278,663.11671 L 305.28752,661.25461 L 293.33381,663.18628 L 305.37961,661.95291 L 293.34119,663.25633 L 305.43503,662.65508 L 293.34489,663.32666 L 305.45362,663.35918 L 293.34491,663.3971 L 305.43534,664.06329 L 293.34124,663.46744 L 305.38024,664.76548 L 293.33389,663.53749 L 305.28846,665.46383 L 293.32289,663.60706 L 305.16025,666.15641 L 293.30826,663.67596 L 304.99598,666.84134 L 293.29005,663.744 L 304.79608,667.51673 L 293.26829,663.81099 L 304.56112,668.18073 L 293.24307,663.87675 L 304.29172,668.83152 L 293.21443,663.94111 L 303.98863,669.46732 L 293.18247,664.00387 L 303.65268,670.08639 L 293.14727,664.06488 L 303.28479,670.68703 L 293.10892,664.12396 L 302.88597,671.26759 L 293.06753,664.18095 L 302.45732,671.82649 L 293.02322,664.2357 L 302,672.36218 z "
       transform="matrix(2.450049,0,0,2.338509,-537.9134,-950.4163)" />
  </g>
  <g
     inkscape:groupmode="layer"
     id="layer2"
     inkscape:label="dessin"
     style="display:inline"
     transform="translate(-34.844224,-182.6026)">
    <path
       style="opacity:1;fill:url(#linearGradient15479);fill-opacity:1;fill-rule:evenodd;stroke:none;stroke-width:1px;stroke-linecap:butt;stroke-linejoin:miter;stroke-opacity:1"
       d="M 447.69018,402.03328 C 462.77027,393.55073 410.93246,485.91629 410.93246,485.91629 C 410.93246,485.91629 423.18504,489.68631 438.26513,475.54872 C 453.34522,461.41114 461.82777,449.15857 487.27542,433.13597 C 512.72307,417.11337 530.63068,412.40085 536.28572,417.11337 C 541.94075,421.8259 542.88325,427.48094 541.94075,434.07848 C 540.99824,440.67602 527.80316,468.95118 520.26312,473.66371 C 512.72307,478.37624 478.79287,505.7089 451.46021,518.90399 C 451.46021,518.90399 403.17301,537.53824 392.80544,537.53824 C 382.43787,537.53824 409.98996,537.7541 424.12754,544.35164 C 438.26513,550.94918 472.19533,575.45432 475.96535,574.51182 C 479.73538,573.56931 477.85036,586.76439 458.05775,593.36193 C 438.26513,599.95947 391.13984,583.93687 375.11725,572.62681 C 359.09465,561.31674 349.38252,555.13538 349.38252,555.13538 C 349.38252,555.13538 343.07206,568.85678 326.10696,566.97177 C 310.14856,568.76018 292.91808,556.12449 292.91808,556.12449 C 292.91808,556.12449 263.05192,568.76018 225.14488,572.20627 C 187.23783,575.65237 189.53523,580.24716 168.85866,572.20627 C 148.18209,564.16538 138.9925,553.8271 137.8438,543.48881 C 137.8438,543.48881 129.80291,548.0836 160.81777,544.63751 C 191.83263,541.19141 263.05192,528.55573 263.05192,528.55573 C 259.60583,520.51484 264.20062,509.02786 264.20062,509.02786 C 264.20062,509.02786 227.44227,488.35129 211.3605,473.41821 C 195.27872,458.48513 163.11517,422.87548 160.81777,410.2398 C 158.52037,397.60412 157.37167,388.41453 157.37167,388.41453 C 157.37167,388.41453 160.81777,388.41453 170.00736,388.41453 C 205.61701,405.64501 228.59097,422.87548 228.59097,422.87548 C 228.59097,422.87548 233.18577,414.8346 230.88837,405.64501 C 228.59097,396.45542 217.10399,375.77885 229.73967,370.03536 C 242.37535,364.29187 258.45713,393.00933 258.45713,393.00933 C 258.45713,393.00933 245.82145,364.29187 251.56494,356.25098 C 257.30843,348.21009 273.39021,361.99447 273.39021,355.10228 C 273.39021,348.21009 267.64672,324.08743 272.24151,310.30305 C 276.8363,296.51867 306.70246,317.19524 307.85116,321.79003 C 308.99986,326.38482 335.41992,363.14317 335.41992,363.14317 C 335.41992,363.14317 333.12252,353.95358 348.0556,343.6153 C 362.98868,333.27701 359.54259,328.68222 371.02957,340.1692 C 388.26004,335.57441 396.30093,337.87181 405.49052,348.21009 C 413.53141,332.12831 416.9775,319.49263 426.16709,319.49263 C 437.65407,308.00565 437.65407,304.55955 446.84366,311.45174 C 456.03325,318.34393 436.50537,411.3885 436.50537,411.3885 L 447.69018,402.03328 z "
       id="path2003"
       sodipodi:nodetypes="ccsssssczsssscscsscsccsscscsscsssscscccsc" />
    <path
       style="opacity:1;fill:url(#linearGradient2900);fill-opacity:1;fill-rule:evenodd;stroke:none;stroke-width:1px;stroke-linecap:butt;stroke-linejoin:miter;stroke-opacity:1"
       d="M 329.5,528.36218 C 323.5,547.86218 318,554.86218 308,561.86218 C 308,561.86218 325,567.36218 332,564.86218 C 339,562.36218 351,550.86218 351,550.86218 C 351,550.86218 347.5,551.36218 367.5,564.36218 C 387.5,577.36218 404.5,583.86218 402,582.86218 C 385.5,565.86218 397,555.36218 397,555.36218 C 397,555.36218 404,560.36218 406,568.36218 C 408,576.36218 412.5,580.86218 420,584.36218 C 427.5,587.86218 441.5,585.86218 446.5,582.36218 C 451.5,578.86218 458,566.86218 458,566.86218 C 458,566.86218 442.5,555.86218 431.5,550.36218 C 420.5,544.86218 405.5,542.86218 393,540.36218 C 380.5,537.86218 397,533.36218 397,533.36218 L 414.5,530.36218 L 405,529.36218 L 404.5,521.86218 C 404.5,521.86218 388,530.86218 392.5,521.86218 C 397,512.86218 402.5,506.36218 402.5,506.36218 C 402.5,506.36218 385.5,527.86218 389,519.36218 C 392.5,510.86218 406,477.36218 411,471.36218 C 416,465.36218 415.5,464.36218 415.5,464.36218 C 415.5,464.36218 412,467.36218 400,477.86218 C 388,488.36218 373,516.86218 364.5,516.86218 C 356,516.86218 366.5,482.86218 363.5,480.86218 C 360.5,478.86218 361,501.86218 354,491.36218 C 347,480.86218 341,463.36218 338,465.36218 C 335,467.36218 340.5,491.36218 335.5,491.36218 C 330.5,491.36218 303.5,449.86218 303.5,449.86218 C 303.5,449.86218 319,499.36218 312.5,491.86218 C 306,484.36218 307,489.86218 307,489.86218 C 307,489.86218 311.5,505.86218 307.5,495.86218 C 303.5,485.86218 280,443.86218 281.5,434.86218 C 281.5,434.86218 284,475.36218 275,469.36218 C 275,469.36218 288.5,496.36218 288,504.36218 C 287.5,512.36218 232.5,434.36218 231.5,428.36218 C 230.5,422.36218 172,390.86218 172,390.86218 C 172,390.86218 158,387.86218 158.5,390.36218 C 159,392.86218 172,415.36218 175.5,419.86218 C 179,424.36218 198,440.86218 202,442.86218 C 206,444.86218 258,471.36218 260.5,477.36218 C 263,483.36218 252,486.36218 252,486.36218 C 252,486.36218 270,503.86218 269.5,509.36218 C 269,514.86218 282.5,518.36218 283,522.36218 C 283.5,526.36218 290,521.36218 290,521.36218 C 290,521.36218 283,513.86218 286,514.86218 C 289,515.86218 290,520.86218 292.5,521.36218 C 295,521.86218 308,522.86218 314,523.36218 C 320,523.86218 329.5,527.36218 329.5,528.36218 z "
       id="path2006"
       sodipodi:nodetypes="ccscsccssscssccccscsscsssssscscss" />
    <path
       style="opacity:1;fill:url(#linearGradient2906);fill-opacity:0.75;fill-rule:evenodd;stroke:none;stroke-width:1px;stroke-linecap:butt;stroke-linejoin:miter;stroke-opacity:1"
       d="M 532,417.86218 C 531,423.36218 535.5,422.86218 535.5,422.86218 L 531,427.86218 C 531,427.86218 530.5,436.86218 533,436.86218 C 535.5,436.86218 518.5,445.36218 524,448.36218 C 529.5,451.36218 489,491.86218 507,477.86218 C 525,463.86218 537.5,446.86218 538.5,439.86218 C 539.5,432.86218 541,427.86218 539,423.36218 C 537,418.86218 532,416.86218 532,417.86218 z "
       id="path2904" />
    <path
       style="opacity:1;fill:url(#linearGradient2928);fill-opacity:0.75;fill-rule:evenodd;stroke:none;stroke-width:1px;stroke-linecap:butt;stroke-linejoin:miter;stroke-opacity:1"
       d="M 266.5,514.36218 C 266.5,533.86218 280.5,545.86218 287.5,551.36218 L 298,551.86218 C 298,551.86218 292.5,553.86218 287.5,556.36218 C 282.5,558.86218 235.5,569.86218 235.5,569.86218 C 235.5,569.86218 187,576.86218 181.5,576.36218 C 176,575.86218 162,567.86218 162,567.86218 C 162,567.86218 192,574.86218 199.5,571.36218 C 207,567.86218 232,558.36218 231.5,553.36218 C 231,548.36218 218,551.86218 214,548.36218 C 210,544.86218 210,538.36218 210,538.36218 L 265,528.86218 C 265,528.86218 262.5,524.36218 266.5,514.36218 z "
       id="path2926"
       sodipodi:nodetypes="cccscscsssccc" />
    <path
       style="opacity:1;fill:url(#linearGradient2936);fill-opacity:0.75;fill-rule:evenodd;stroke:none;stroke-width:1px;stroke-linecap:butt;stroke-linejoin:miter;stroke-opacity:1;display:inline"
       d="M 381.36224,408.29468 C 395.36224,410.79468 396.36224,414.29468 397.36224,420.29468 C 398.36224,426.29468 392.86224,435.29468 398.86224,432.79468 C 404.86224,430.29468 408.36224,430.29468 410.36224,433.79468 C 412.36224,437.29468 409.86224,452.29468 409.86224,452.29468 C 409.86224,452.29468 405.36224,453.79468 398.86224,446.79468 C 392.36224,439.79468 397.36224,425.79468 392.36224,420.79468 C 387.36224,415.79468 389.86224,408.79468 377.86224,413.79468 C 365.86224,418.79468 365.86224,415.79468 365.86224,415.79468 C 365.86224,415.79468 370.36224,410.79468 374.36224,409.29468 C 378.36224,407.79468 376.36224,409.79468 376.36224,409.79468 L 381.36224,408.29468 z "
       id="path2930"
       sodipodi:nodetypes="cssscssscscc" />
    <path
       style="opacity:1;fill:url(#linearGradient2956);fill-opacity:0.75;fill-rule:evenodd;stroke:none;stroke-width:1px;stroke-linecap:butt;stroke-linejoin:miter;stroke-opacity:1"
       d="M 260.5,360.86218 C 256.80385,358.8919 267,391.86218 269.5,397.36218 C 285.5,396.86218 293,400.36218 294,400.86218 C 295,401.36218 273.3133,363.62838 260.5,360.86218 z "
       id="path2940"
       sodipodi:nodetypes="ccsc" />
    <path
       style="opacity:1;fill:url(#linearGradient2966);fill-opacity:1;fill-rule:evenodd;stroke:none;stroke-width:1px;stroke-linecap:butt;stroke-linejoin:miter;stroke-opacity:1"
       d="M 230,390.36218 C 231,382.86218 255,400.86218 255,400.86218 C 251,389.36218 245,378.86218 236.5,376.36218 C 223.5,375.86218 224.5,383.86218 230,390.36218 z "
       id="path2944" />
    <path
       style="opacity:1;fill:url(#linearGradient2958);fill-opacity:1;fill-rule:evenodd;stroke:none;stroke-width:1px;stroke-linecap:butt;stroke-linejoin:miter;stroke-opacity:1"
       d="M 275,356.86218 C 290.5,366.86218 297.5,386.36218 297.5,386.36218 C 299,370.86218 311,389.36218 311,389.36218 C 312.5,364.86218 277.5,308.86218 277.5,308.86218 C 264.5,321.36218 275.5,356.36218 275,356.86218 z "
       id="path2946" />
    <path
       style="opacity:1;fill:url(#linearGradient2982);fill-opacity:1;fill-rule:evenodd;stroke:none;stroke-width:1px;stroke-linecap:butt;stroke-linejoin:miter;stroke-opacity:1"
       d="M 376.5,347.36218 C 386,358.36218 385,362.36218 384.5,369.86218 C 384,377.36218 382.5,385.36218 385.5,389.86218 C 391,370.86218 401,357.36218 401,357.36218 C 401,357.36218 396,357.36218 390.5,351.86218 C 385,346.36218 376,346.86218 376.5,347.36218 z "
       id="path2948" />
    <path
       style="opacity:1;fill:url(#linearGradient2990);fill-opacity:1;fill-rule:evenodd;stroke:none;stroke-width:1px;stroke-linecap:butt;stroke-linejoin:miter;stroke-opacity:1"
       d="M 445.5,335.86218 C 443,343.86218 437.5,346.36218 437.5,346.36218 C 437.5,346.36218 437.5,371.36218 441,362.86218 C 444.5,354.36218 445.5,336.36218 445.5,335.86218 z "
       id="path2950" />
    <path
       style="opacity:1;fill:url(#linearGradient2998);fill-opacity:1;fill-rule:evenodd;stroke:none;stroke-width:1px;stroke-linecap:butt;stroke-linejoin:miter;stroke-opacity:1"
       d="M 411.5,337.86218 C 420,328.36218 415.5,327.86218 421,324.86218 C 426.5,321.86218 428.5,326.36218 430.5,321.36218 C 432.5,316.36218 433,313.36218 438.5,312.86218 C 444,312.36218 446.5,320.36218 446.5,320.36218 L 446.89149,320.15311 C 446.89149,320.15311 448.65925,319.09245 446.89149,314.49626 C 445.12372,309.90006 443.35595,308.8394 439.11331,308.8394 C 434.87067,308.8394 436.28488,310.25362 431.33514,314.49626 C 426.38539,318.7389 427.44605,319.79956 427.44605,319.79956 C 427.44605,319.79956 422.84986,319.79956 419.66787,322.27443 C 416.48589,324.7493 415.07168,328.63839 411.5,337.86218 z "
       id="path2952"
       sodipodi:nodetypes="csssc" />
    <path
       style="opacity:1;fill:url(#linearGradient2974);fill-opacity:1;fill-rule:evenodd;stroke:none;stroke-width:1px;stroke-linecap:butt;stroke-linejoin:miter;stroke-opacity:1"
       d="M 440.52752,374.24678 C 435.22422,401.47039 430.62803,412.07699 433.1029,412.43055 C 435.57778,412.7841 435.57778,416.67319 439.82042,412.43055 C 444.06306,408.1879 460.68007,389.09602 448.3057,403.94526 C 435.93133,418.79451 424.61762,439.65416 418.60721,435.76507 C 412.59681,431.87598 410.82904,426.21913 405.52574,425.15847 C 400.22244,424.09781 399.51533,418.44095 396.33335,411.72344 C 393.15137,405.00592 380.777,407.83435 389.61584,398.28841 C 398.45467,388.74247 399.51533,377.78231 403.05087,381.6714 C 406.5864,385.56049 394.91914,408.1879 405.52574,400.40973 C 416.13234,392.63156 418.60721,380.25719 419.66787,390.51024 C 420.72853,400.76328 404.11153,420.91583 414.71813,411.01633 C 425.32473,401.11684 440.17397,374.95389 440.52752,374.24678 z "
       id="path2954" />
    <path
       style="opacity:1;fill:url(#linearGradient12796);fill-opacity:1;fill-rule:evenodd;stroke:none;stroke-width:1px;stroke-linecap:butt;stroke-linejoin:miter;stroke-opacity:1"
       d="M 335,461.36218 C 322.5,433.36218 318,430.86218 313.5,426.36218 C 309,421.86218 295,418.36218 291.5,413.86218 C 287.5,405.36218 290.5,402.86218 290.5,402.86218 C 295,408.36218 308.5,420.36218 303.5,414.36218 C 303.5,403.86218 298.5,395.36218 298.5,395.36218 C 312.5,394.86218 316.5,404.86218 318.5,408.36218 C 320.5,411.86218 324.5,413.36218 324.5,413.36218 C 324.5,413.36218 327,404.86218 324.5,398.86218 C 322,392.86218 331,408.36218 330.5,404.86218 C 330,401.36218 325.5,378.36218 329.5,378.86218 C 333.5,379.36218 337.5,426.36218 340,424.36218 C 342.5,422.36218 343,403.36218 344.5,396.86218 C 346,390.36218 348,381.36218 352,381.36218 C 356,381.36218 358.5,393.36218 358,397.86218 C 357.5,402.36218 359.5,414.36218 359.5,414.36218 C 350.5,424.36218 335,447.36218 335,461.36218 z "
       id="path12790" />
    <path
       style="opacity:1;fill:url(#linearGradient12818);fill-opacity:1;fill-rule:evenodd;stroke:none;stroke-width:1px;stroke-linecap:butt;stroke-linejoin:miter;stroke-opacity:1"
       d="M 368,411.86218 C 370,393.86218 368.5,377.86218 374,377.86218 C 379.5,377.86218 375.5,408.36218 375.5,408.36218 L 375.4221,408.31976 C 372.34424,407.93503 370.42058,409.24312 368,411.86218 z "
       id="path12792" />
    <path
       style="opacity:1;fill:url(#linearGradient12816);fill-opacity:1;fill-rule:evenodd;stroke:none;stroke-width:1px;stroke-linecap:butt;stroke-linejoin:miter;stroke-opacity:1"
       d="M 325.5,438.36218 C 328.5,430.86218 326,413.36218 329,414.11218 C 332,414.86218 339.5,434.11218 338.5,439.11218 C 337.5,444.11218 333.75,452.61218 333.75,452.61218 C 333.25,444.86218 330.25,440.61218 325.5,438.36218 z "
       id="path12794" />
    <text
       xml:space="preserve"
       style="font-size:72px;font-style:italic;font-variant:normal;font-weight:bold;font-stretch:normal;text-align:start;line-height:100%;writing-mode:lr-tb;text-anchor:start;fill:#000000;fill-opacity:1;stroke:none;stroke-width:1px;stroke-linecap:butt;stroke-linejoin:miter;stroke-opacity:1;font-family:URW Chancery L"
       x="253.14325"
       y="322.50543"
       id="text21733"
       sodipodi:linespacing="100%"
       transform="matrix(0.9423649,-0.151053,-0.364323,1.1195579,0,0)"><tspan
         sodipodi:role="line"
         id="tspan21735"
         x="253.14325"
         y="322.50543"
         style="font-size:90.00000763px;font-style:italic;font-variant:normal;font-weight:bold;font-stretch:normal;text-align:start;line-height:100%;writing-mode:lr-tb;text-anchor:start;font-family:URW Chancery L">WxGomtrie</tspan></text>
  </g>
</svg>
