<?xml version="1.0" encoding="UTF-8" standalone="no"?>
<!-- Created with Inkscape (http://www.inkscape.org/) -->

<svg
   xmlns:dc="http://purl.org/dc/elements/1.1/"
   xmlns:cc="http://creativecommons.org/ns#"
   xmlns:rdf="http://www.w3.org/1999/02/22-rdf-syntax-ns#"
   xmlns:svg="http://www.w3.org/2000/svg"
   xmlns="http://www.w3.org/2000/svg"
   xmlns:xlink="http://www.w3.org/1999/xlink"
   xmlns:sodipodi="http://sodipodi.sourceforge.net/DTD/sodipodi-0.dtd"
   xmlns:inkscape="http://www.inkscape.org/namespaces/inkscape"
   width="628.45648"
   height="652.93219"
   id="svg2"
   sodipodi:version="0.32"
   inkscape:version="0.47 r22583"
   sodipodi:docname="logo4.svg"
   inkscape:export-filename="/home/nicolas/Programmation/wxgeometrie/wxgeometrie/images/logo4.png"
   inkscape:export-xdpi="72"
   inkscape:export-ydpi="72"
   inkscape:output_extension="org.inkscape.output.svg.inkscape"
   version="1.0"
   sodipodi:modified="TRUE">
  <defs
     id="defs4">
    <marker
       inkscape:stockid="Arrow2Sstart"
       orient="auto"
       refY="0.0"
       refX="0.0"
       id="Arrow2Sstart"
       style="overflow:visible">
      <path
         id="path4768"
         style="font-size:12.0;fill-rule:evenodd;stroke-width:0.62500000;stroke-linejoin:round"
         d="M 8.7185878,4.0337352 L -2.2072895,0.016013256 L 8.7185884,-4.0017078 C 6.9730900,-1.6296469 6.9831476,1.6157441 8.7185878,4.0337352 z "
         transform="scale(0.3) translate(-2.3,0)" />
    </marker>
    <marker
       inkscape:stockid="Arrow1Lstart"
       orient="auto"
       refY="0.0"
       refX="0.0"
       id="Arrow1Lstart"
       style="overflow:visible">
      <path
         id="path4738"
         d="M 0.0,0.0 L 5.0,-5.0 L -12.5,0.0 L 5.0,5.0 L 0.0,0.0 z "
         style="fill-rule:evenodd;stroke:#000000;stroke-width:1.0pt;marker-start:none"
         transform="scale(0.8) translate(12.5,0)" />
    </marker>
    <linearGradient
       id="linearGradient4569">
      <stop
         id="stop4577"
         offset="0"
         style="stop-color:#adf294;stop-opacity:0.40000001;" />
      <stop
         style="stop-color:#ffffff;stop-opacity:1;"
         offset="0.5"
         id="stop4579" />
      <stop
         style="stop-color:#ac9a51;stop-opacity:0.51111114;"
         offset="1"
         id="stop4573" />
    </linearGradient>
    <inkscape:perspective
       sodipodi:type="inkscape:persp3d"
       inkscape:vp_x="0 : 326.46609 : 1"
       inkscape:vp_y="0 : 1000 : 0"
       inkscape:vp_z="628.45648 : 326.46609 : 1"
       inkscape:persp3d-origin="314.22824 : 217.64406 : 1"
       id="perspective86" />
    <linearGradient
       id="linearGradient20836">
      <stop
         id="stop20838"
         offset="0"
         style="stop-color:#125c6a;stop-opacity:0.90196079;" />
      <stop
         id="stop20840"
         offset="1"
         style="stop-color:#7027c2;stop-opacity:0.08627451;" />
    </linearGradient>
    <linearGradient
       id="linearGradient19945">
      <stop
         style="stop-color:#1f0c6e;stop-opacity:0.88627452;"
         offset="0"
         id="stop19947" />
      <stop
         style="stop-color:#106f84;stop-opacity:0.23921569;"
         offset="1"
         id="stop19949" />
    </linearGradient>
    <linearGradient
       id="linearGradient19054">
      <stop
         id="stop19056"
         offset="0"
         style="stop-color:#142366;stop-opacity:0.77678573;" />
      <stop
         id="stop19058"
         offset="1"
         style="stop-color:#1c6879;stop-opacity:0.39215687;" />
    </linearGradient>
    <linearGradient
       id="linearGradient16387">
      <stop
         id="stop16389"
         offset="0"
         style="stop-color:#0a3827;stop-opacity:1;" />
      <stop
         id="stop16391"
         offset="1"
         style="stop-color:#765d1b;stop-opacity:0.49803922;" />
    </linearGradient>
    <linearGradient
       id="linearGradient15484">
      <stop
         style="stop-color:#236036;stop-opacity:1;"
         offset="0"
         id="stop15486" />
      <stop
         style="stop-color:#93ac2c;stop-opacity:0.69803923;"
         offset="1"
         id="stop15488" />
    </linearGradient>
    <linearGradient
       id="linearGradient12782">
      <stop
         style="stop-color:white;stop-opacity:1;"
         offset="0"
         id="stop12784" />
      <stop
         id="stop12786"
         offset="0.41999999"
         style="stop-color:white;stop-opacity:0.98039216;" />
      <stop
         style="stop-color:#e0cad1;stop-opacity:0.8214286;"
         offset="1"
         id="stop12788" />
    </linearGradient>
    <linearGradient
       id="linearGradient11887">
      <stop
         id="stop11889"
         offset="0"
         style="stop-color:#fff0a9;stop-opacity:1;" />
      <stop
         style="stop-color:#ffea67;stop-opacity:1;"
         offset="0.5"
         id="stop11891" />
      <stop
         id="stop11893"
         offset="1"
         style="stop-color:#ffb668;stop-opacity:1;" />
    </linearGradient>
    <linearGradient
       id="linearGradient10091">
      <stop
         style="stop-color:#142366;stop-opacity:1;"
         offset="0"
         id="stop10093" />
      <stop
         id="stop4627"
         offset="0.5"
         style="stop-color:#142673;stop-opacity:1;" />
      <stop
         style="stop-color:#152980;stop-opacity:0.23137255;"
         offset="1"
         id="stop10988" />
    </linearGradient>
    <linearGradient
       id="linearGradient2894">
      <stop
         style="stop-color:#ffffff;stop-opacity:1;"
         offset="0"
         id="stop2896" />
      <stop
         id="stop2902"
         offset="0.5"
         style="stop-color:#e7e9f3;stop-opacity:1;" />
      <stop
         style="stop-color:#c69999;stop-opacity:1;"
         offset="1"
         id="stop2898" />
    </linearGradient>
    <linearGradient
       inkscape:collect="always"
       xlink:href="#linearGradient2894"
       id="linearGradient2900"
       x1="333.5"
       y1="388.8642"
       x2="333.5"
       y2="581.87256"
       gradientUnits="userSpaceOnUse"
       gradientTransform="translate(0,-42)" />
    <linearGradient
       inkscape:collect="always"
       xlink:href="#linearGradient2894"
       id="linearGradient2906"
       x1="546.67029"
       y1="405.70258"
       x2="471.67029"
       y2="506.20258"
       gradientUnits="userSpaceOnUse"
       gradientTransform="translate(0,-42)" />
    <linearGradient
       inkscape:collect="always"
       xlink:href="#linearGradient2894"
       id="linearGradient2928"
       x1="161.5"
       y1="545.37494"
       x2="258.5"
       y2="563.37494"
       gradientUnits="userSpaceOnUse"
       gradientTransform="translate(0,-42)" />
    <linearGradient
       inkscape:collect="always"
       xlink:href="#linearGradient2894"
       id="linearGradient2936"
       gradientUnits="userSpaceOnUse"
       x1="406.5"
       y1="398.92969"
       x2="375.77551"
       y2="450.99719"
       gradientTransform="translate(-0.13776,-40.0675)" />
    <linearGradient
       inkscape:collect="always"
       xlink:href="#linearGradient2894"
       id="linearGradient2956"
       x1="259.2016"
       y1="380.82224"
       x2="294.53342"
       y2="408.81323"
       gradientUnits="userSpaceOnUse"
       gradientTransform="translate(0,-42)" />
    <linearGradient
       inkscape:collect="always"
       xlink:href="#linearGradient2894"
       id="linearGradient2958"
       x1="303.23575"
       y1="319.93127"
       x2="230.45915"
       y2="410.43549"
       gradientUnits="userSpaceOnUse"
       gradientTransform="translate(0,-42)" />
    <linearGradient
       inkscape:collect="always"
       xlink:href="#linearGradient2894"
       id="linearGradient2966"
       x1="240.57753"
       y1="362.8508"
       x2="240.57753"
       y2="430.02917"
       gradientUnits="userSpaceOnUse"
       gradientTransform="translate(0,-42)" />
    <linearGradient
       inkscape:collect="always"
       xlink:href="#linearGradient2894"
       id="linearGradient2974"
       x1="431.06125"
       y1="377.77933"
       x2="385.98813"
       y2="439.29886"
       gradientUnits="userSpaceOnUse"
       gradientTransform="translate(0,-42)" />
    <linearGradient
       inkscape:collect="always"
       xlink:href="#linearGradient2894"
       id="linearGradient2982"
       x1="392.34036"
       y1="350.72137"
       x2="375.98001"
       y2="382.91101"
       gradientUnits="userSpaceOnUse"
       gradientTransform="translate(0,-42)" />
    <linearGradient
       inkscape:collect="always"
       xlink:href="#linearGradient2894"
       id="linearGradient2990"
       x1="449.72189"
       y1="337.19238"
       x2="427.79562"
       y2="365.12503"
       gradientUnits="userSpaceOnUse"
       gradientTransform="translate(0,-42)" />
    <linearGradient
       inkscape:collect="always"
       xlink:href="#linearGradient2894"
       id="linearGradient2998"
       x1="444.59021"
       y1="303.60321"
       x2="416.13272"
       y2="341.85757"
       gradientUnits="userSpaceOnUse"
       gradientTransform="translate(0,-42)" />
    <linearGradient
       inkscape:collect="always"
       xlink:href="#linearGradient11887"
       id="linearGradient12796"
       x1="325.5"
       y1="378.36218"
       x2="328"
       y2="460.36218"
       gradientUnits="userSpaceOnUse"
       gradientTransform="translate(0,-42)" />
    <linearGradient
       inkscape:collect="always"
       xlink:href="#linearGradient11887"
       id="linearGradient12816"
       x1="330.75"
       y1="418.36218"
       x2="333.5"
       y2="451.11218"
       gradientUnits="userSpaceOnUse"
       gradientTransform="translate(0,-42)" />
    <linearGradient
       inkscape:collect="always"
       xlink:href="#linearGradient11887"
       id="linearGradient12818"
       x1="372.75"
       y1="378.86218"
       x2="372.45233"
       y2="409.11218"
       gradientUnits="userSpaceOnUse"
       gradientTransform="translate(0,-42)" />
    <linearGradient
       inkscape:collect="always"
       xlink:href="#linearGradient12782"
       id="linearGradient15479"
       x1="337"
       y1="305.36218"
       x2="323"
       y2="572.36218"
       gradientUnits="userSpaceOnUse"
       gradientTransform="translate(0,-42)" />
    <linearGradient
       inkscape:collect="always"
       xlink:href="#linearGradient15484"
       id="linearGradient15490"
       x1="356"
       y1="512.36218"
       x2="365"
       y2="694.36218"
       gradientUnits="userSpaceOnUse"
       gradientTransform="translate(-22,-58)" />
    <linearGradient
       inkscape:collect="always"
       xlink:href="#linearGradient16387"
       id="linearGradient16385"
       x1="357"
       y1="504.36218"
       x2="390"
       y2="699.36218"
       gradientUnits="userSpaceOnUse"
       gradientTransform="translate(-22,-62)" />
    <inkscape:perspective
       id="perspective2900"
       inkscape:persp3d-origin="0.5 : 0.33333333 : 1"
       inkscape:vp_z="1 : 0.5 : 1"
       inkscape:vp_y="0 : 1000 : 0"
       inkscape:vp_x="0 : 0.5 : 1"
       sodipodi:type="inkscape:persp3d" />
    <inkscape:perspective
       id="perspective3697"
       inkscape:persp3d-origin="0.5 : 0.33333333 : 1"
       inkscape:vp_z="1 : 0.5 : 1"
       inkscape:vp_y="0 : 1000 : 0"
       inkscape:vp_x="0 : 0.5 : 1"
       sodipodi:type="inkscape:persp3d" />
    <linearGradient
       inkscape:collect="always"
       xlink:href="#linearGradient11887"
       id="linearGradient3762"
       x1="522.96857"
       y1="720.96033"
       x2="876.87299"
       y2="720.96033"
       gradientUnits="userSpaceOnUse"
       gradientTransform="translate(-26.769109,-79.534572)" />
    <inkscape:perspective
       id="perspective3772"
       inkscape:persp3d-origin="0.5 : 0.33333333 : 1"
       inkscape:vp_z="1 : 0.5 : 1"
       inkscape:vp_y="0 : 1000 : 0"
       inkscape:vp_x="0 : 0.5 : 1"
       sodipodi:type="inkscape:persp3d" />
    <linearGradient
       inkscape:collect="always"
       xlink:href="#linearGradient11887-1"
       id="linearGradient3762-7"
       x1="522.96857"
       y1="720.96033"
       x2="876.87299"
       y2="720.96033"
       gradientUnits="userSpaceOnUse"
       gradientTransform="translate(-26.769109,-79.534572)" />
    <linearGradient
       id="linearGradient11887-1">
      <stop
         id="stop11889-7"
         offset="0"
         style="stop-color:#fff0a9;stop-opacity:1;" />
      <stop
         style="stop-color:#ffea67;stop-opacity:1;"
         offset="0.5"
         id="stop11891-1" />
      <stop
         id="stop11893-8"
         offset="1"
         style="stop-color:#ffb668;stop-opacity:1;" />
    </linearGradient>
    <linearGradient
       inkscape:collect="always"
       xlink:href="#linearGradient11887-1"
       id="linearGradient3781"
       x1="522.96857"
       y1="720.96033"
       x2="876.87299"
       y2="720.96033"
       gradientUnits="userSpaceOnUse"
       gradientTransform="translate(-26.769109,-79.534572)" />
    <linearGradient
       id="linearGradient3783">
      <stop
         id="stop3785"
         offset="0"
         style="stop-color:#fff0a9;stop-opacity:1;" />
      <stop
         style="stop-color:#ffea67;stop-opacity:1;"
         offset="0.5"
         id="stop3787" />
      <stop
         id="stop3789"
         offset="1"
         style="stop-color:#ffb668;stop-opacity:1;" />
    </linearGradient>
    <radialGradient
       inkscape:collect="always"
       xlink:href="#linearGradient10091"
       id="radialGradient4621"
       gradientUnits="userSpaceOnUse"
       gradientTransform="matrix(1,0,0,1.00147,0,-0.5708)"
       cx="191.68655"
       cy="388.20816"
       fx="191.68655"
       fy="388.20816"
       r="172.71683" />
    <radialGradient
       inkscape:collect="always"
       xlink:href="#linearGradient19945"
       id="radialGradient4623"
       gradientUnits="userSpaceOnUse"
       gradientTransform="matrix(1,0,0,1.00147,0,-0.5708)"
       cx="191.68655"
       cy="388.20816"
       fx="191.68655"
       fy="388.20816"
       r="172.71683" />
    <radialGradient
       inkscape:collect="always"
       xlink:href="#linearGradient20836"
       id="radialGradient4625"
       gradientUnits="userSpaceOnUse"
       gradientTransform="matrix(1,0,0,0.99522,0,2.499009)"
       cx="349.07944"
       cy="522.85345"
       fx="349.07944"
       fy="522.85345"
       r="314.20389" />
    <inkscape:perspective
       id="perspective4661"
       inkscape:persp3d-origin="0.5 : 0.33333333 : 1"
       inkscape:vp_z="1 : 0.5 : 1"
       inkscape:vp_y="0 : 1000 : 0"
       inkscape:vp_x="0 : 0.5 : 1"
       sodipodi:type="inkscape:persp3d" />
    <inkscape:perspective
       id="perspective4687"
       inkscape:persp3d-origin="0.5 : 0.33333333 : 1"
       inkscape:vp_z="1 : 0.5 : 1"
       inkscape:vp_y="0 : 1000 : 0"
       inkscape:vp_x="0 : 0.5 : 1"
       sodipodi:type="inkscape:persp3d" />
    <path
       style="color:#000000;fill:none;stroke:#a7a7a7;stroke-width:6.55247355;stroke-opacity:1;marker:none;visibility:visible;display:inline;overflow:visible;enable-background:accumulate"
       clip-path="none"
       d="m 91.406724,691.0401 c 29.275516,75.73738 132.761736,131.71875 255.937496,131.71875 123.17576,0 226.66198,-55.98137 255.9375,-131.71875"
       id="path4644-3"
       sodipodi:nodetypes="csc" />
    <inkscape:perspective
       id="perspective4718"
       inkscape:persp3d-origin="0.5 : 0.33333333 : 1"
       inkscape:vp_z="1 : 0.5 : 1"
       inkscape:vp_y="0 : 1000 : 0"
       inkscape:vp_x="0 : 0.5 : 1"
       sodipodi:type="inkscape:persp3d" />
  </defs>
  <sodipodi:namedview
     id="base"
     pagecolor="#ffffff"
     bordercolor="#666666"
     borderopacity="1.0"
     inkscape:pageopacity="0.0"
     inkscape:pageshadow="2"
     inkscape:zoom="1.6"
     inkscape:cx="283.12058"
     inkscape:cy="124.70485"
     inkscape:document-units="px"
     inkscape:current-layer="layer2"
     inkscape:window-width="1278"
     inkscape:window-height="944"
     inkscape:window-x="0"
     inkscape:window-y="24"
     showgrid="false"
     inkscape:window-maximized="0" />
  <metadata
     id="metadata7">
    <rdf:RDF>
      <cc:Work
         rdf:about="">
        <dc:format>image/svg+xml</dc:format>
        <dc:type
           rdf:resource="http://purl.org/dc/dcmitype/StillImage" />
        <dc:title></dc:title>
      </cc:Work>
    </rdf:RDF>
  </metadata>
  <g
     inkscape:label="Calque 1"
     inkscape:groupmode="layer"
     id="layer1"
     style="display:none"
     sodipodi:insensitive="true"
     transform="translate(-34.844224,-182.6026)">
    <image
       y="285.33466"
       x="102.20913"
       id="image1999"
       height="481"
       width="481"
       sodipodi:absref="/home/nicolas/Dropbox/Programmation/wxgeometrie/wxgeometrie/images/archives/installation 1beta6.2\complements\fleur_medaillon.png"
       xlink:href="/home/nicolas/Dropbox/Programmation/wxgeometrie/wxgeometrie/images/archives/installation 1beta6.2\complements\fleur_medaillon.png" />
  </g>
  <g
     inkscape:groupmode="layer"
     id="layer3"
     inkscape:label="eau medaillon"
     style="display:inline"
     transform="translate(-34.844224,-182.6026)">
    <path
       sodipodi:type="star"
       style="fill:url(#radialGradient4625);fill-opacity:1;fill-rule:nonzero;stroke:none"
       id="path3890"
       sodipodi:sides="35"
       sodipodi:cx="349"
       sodipodi:cy="520.36218"
       sodipodi:r1="305.55032"
       sodipodi:r2="290.2728"
       sodipodi:arg1="0.71359606"
       sodipodi:arg2="0.80335585"
       inkscape:flatsided="false"
       inkscape:rounded="0.4"
       inkscape:randomized="0.05"
       d="m 569.13255,731.3619 c -7.5816,9.9036 -11.76702,0.18547 -20.71324,8.65272 -8.94621,8.46725 -10.2586,-2.64604 -19.92112,4.92328 -9.66252,7.56932 -11.27821,7.40823 -21.98383,13.73285 -10.70562,6.32462 11.32878,28.76936 0.24487,34.13624 -11.08392,5.36689 -29.68993,-10.22558 -41.35631,-5.7471 -11.66638,4.47847 -0.76512,4.7411 -12.11498,9.38033 -11.34986,4.63922 -16.00059,-11.44888 -27.47204,-7.88663 -11.47146,3.56224 -18.11855,45.0315 -30.36916,46.91113 -12.2506,1.87962 -17.56287,-34.68976 -29.66366,-34.73291 -12.1008,-0.0431 -26.8897,19.48919 -39.46362,18.41035 -12.57391,-1.07884 10.76304,-20.51249 -1.55944,-22.52629 -12.32248,-2.0138 -33.09572,19.45513 -44.96543,17.41852 -11.86972,-2.03662 1.55362,-4.97479 -9.98214,-8.92472 -11.53577,-3.94993 -20.32631,-12.00875 -31.18663,-17.29337 -10.86031,-5.28461 -9.00389,-15.86832 -20.17819,-21.30395 -11.17429,-5.43562 -31.38197,25.58065 -41.73026,18.36915 -10.34829,-7.21149 -8.82572,-23.97775 -17.83842,-32.11545 -9.0127,-8.1377 -4.21747,0.0421 -13.51083,-8.43694 -9.29337,-8.47903 5.10592,-24.44412 -2.839,-33.65651 -7.94492,-9.21239 -32.51874,-8.04766 -39.53229,-18.23841 -7.013546,-10.19076 -8.454743,-1.4373 -13.846405,-12.17777 -5.391663,-10.74046 -6.790963,-24.13211 -12.998381,-35.06492 -6.207418,-10.93281 12.462314,4.79708 8.447513,-6.85169 -4.014801,-11.64877 -27.870878,-28.0695 -31.827232,-39.64463 -3.956354,-11.57514 -0.45442,-3.67241 -3.45878,-15.86069 -3.004361,-12.18827 -12.879188,-35.24726 -14.384414,-47.35005 -1.505226,-12.10278 17.494876,-10.0317 18.009173,-22.20158 0.514298,-12.16988 -6.662842,-19.33116 -5.54322,-31.37179 1.119622,-12.04064 8.17047,-1.51908 11.079064,-13.7709 2.908595,-12.25182 -21.215914,-4.24046 -18.789186,-16.38084 2.426728,-12.14039 43.289835,-25.36161 47.087823,-36.99909 3.797988,-11.63747 -19.488994,-25.48278 -15.073576,-36.76938 4.415419,-11.28661 13.809716,6.8326 19.591376,-4.30686 5.78166,-11.13945 -1.493047,-36.49772 5.611701,-46.77945 7.104744,-10.28172 12.202464,2.85072 20.360364,-6.28096 8.15789,-9.13168 -4.70559,-19.43997 4.49117,-27.16039 9.19675,-7.72041 28.60895,12.67044 38.10775,5.1614 9.4988,-7.50904 21.60095,-23.61857 32.49912,-29.73908 10.89816,-6.12051 19.02995,12.91528 30.17278,7.82621 11.14283,-5.08907 -19.26989,-25.00441 -7.50651,-29.4533 11.76338,-4.44888 21.74525,-9.08373 33.10653,-13.0834 11.36127,-3.99967 9.57647,-0.8658 21.7822,-3.05069 12.20574,-2.18488 29.00802,7.81917 41.2307,6.4634 12.22268,-1.35577 16.18278,-27.77658 28.37143,-27.42941 12.18865,0.34717 -5.56344,19.05031 6.80924,18.68526 12.37268,-0.36506 41.01488,-8.27928 53.14631,-6.91771 12.13142,1.36158 -13.50471,27.77695 -1.40852,30.34337 12.09618,2.56641 42.79323,-22.22119 54.75769,-18.3443 11.96446,3.87689 -0.84874,8.00399 10.03359,13.16071 10.88234,5.15672 20.48114,-5.25186 30.96266,1.20714 10.48153,6.459 -2.27061,33.13042 7.90474,40.13737 10.17535,7.00695 19.22327,-9.50578 29.24969,-2.58884 10.02642,6.91693 11.57163,5.92734 20.14942,14.82969 8.57779,8.90234 7.52019,-4.89199 14.91166,4.9154 7.39147,9.80739 16.59451,43.99794 23.25518,54.04844 6.66067,10.0505 20.64035,-12.34648 26.96852,-2.05878 6.32818,10.2877 0.96218,38.42872 6.99722,48.85954 6.03503,10.43081 9.77434,-19.10544 13.99582,-7.70742 4.22148,11.39803 -3.85175,35.55201 -0.35102,47.17455 3.50073,11.62254 4.07279,11.80291 6.8928,23.79556 2.82,11.99265 3.25049,20.27448 4.90569,32.59416 1.65519,12.31969 15.39781,6.26568 14.56595,18.68269 -0.83185,12.417 -19.38418,1.49058 -19.6615,13.92824 -0.27732,12.43767 5.3707,29.25331 3.47477,41.20318 -1.89592,11.94987 -17.44323,18.07568 -20.60822,30.20185 -3.165,12.12616 5.70187,11.00088 1.97061,22.62232 -3.73126,11.62143 -25.81029,-5.62939 -31.79858,4.96225 -5.98829,10.59163 10.89157,26.53331 4.58987,37.0321 -6.3017,10.49878 -5.8544,20.17605 -13.77145,29.78193 -7.91706,9.60589 -10.74581,20.75127 -18.32741,30.65487 z"
       transform="matrix(1.071604,0,0,0.90006074,-40.244985,39.00273)" />
    <path
       sodipodi:type="star"
       style="fill:url(#radialGradient4623);fill-opacity:1;fill-rule:nonzero;stroke:none;display:inline"
       id="path8319"
       sodipodi:sides="35"
       sodipodi:cx="194"
       sodipodi:cy="387.36218"
       sodipodi:r1="170.3203"
       sodipodi:r2="153.28825"
       sodipodi:arg1="0.96488033"
       sodipodi:arg2="1.0546401"
       inkscape:flatsided="false"
       inkscape:rounded="0.4"
       inkscape:randomized="0.05"
       d="m 288.73812,535.85894 c -7.56427,4.64555 -9.15256,-11.57098 -16.76749,-6.95535 -7.61493,4.61563 -1.13257,4.85526 -9.29287,7.95854 -8.1603,3.10329 -11.16272,-14.71634 -19.86121,-11.86227 -8.69849,2.85407 -1.04248,23.72786 -9.71273,26.40857 -8.67024,2.6807 -13.96196,-12.55078 -22.83499,-10.92173 -8.87304,1.62906 9.66986,19.86422 0.84902,20.66995 -8.82083,0.80574 -13.20219,-20.50249 -21.93156,-21.35043 -8.72937,-0.84794 0.43471,14.52518 -8.4667,13.41439 -8.9014,-1.11078 -6.80899,-9.27651 -15.74363,-11.1827 -8.93465,-1.90619 -8.38613,17.64768 -16.588,14.65861 -8.20188,-2.98907 -8.43136,-31.57668 -16.89605,-35.03053 -8.46468,-3.45385 -11.06289,16.00409 -18.93145,11.44123 -7.86856,-4.56286 2.58768,-17.38018 -4.94494,-22.46877 -7.53262,-5.08859 -16.892447,11.55028 -24.092264,6.26877 -7.199815,-5.28151 17.297284,-15.1647 11.172072,-21.49025 -6.125217,-6.32554 -14.692514,11.81473 -20.845271,5.12151 -6.152755,-6.69322 -3.368207,-12.90835 -8.92146,-19.77691 -5.553253,-6.86856 -13.014851,0.73293 -18.253574,-6.64802 -5.238722,-7.38095 23.208336,-12.2739 19.206373,-20.13518 -4.001964,-7.86129 -30.14042,13.06899 -33.636641,4.97321 -3.49622,-8.09578 17.397295,-12.80517 15.350677,-21.69164 -2.046618,-8.88648 -19.553055,-11.36395 -21.918823,-19.93136 -2.365768,-8.56741 11.888882,-10.2621 10.520208,-18.91569 -1.368675,-8.65358 -11.340752,6.46144 -11.122437,-2.397 0.218316,-8.85843 14.21072,-3.14949 14.355293,-12.17629 0.144573,-9.0268 -21.855814,-16.79213 -20.389803,-25.51888 1.466012,-8.72674 23.570393,5.47421 25.965887,-3.15129 2.395495,-8.6255 -7.589827,-12.58534 -4.741627,-21.09338 2.848199,-8.50803 6.927563,1.54747 10.559616,-6.79747 3.632053,-8.34495 -8.920791,-8.01671 -4.471354,-15.53497 4.449437,-7.51826 21.78004,-4.63162 27.300169,-11.94812 5.520129,-7.3165 -14.34038,-17.75564 -8.319433,-24.61068 6.020946,-6.85504 16.088842,13.07002 22.407696,6.81574 6.318854,-6.25427 -14.50923,-13.45899 -7.619076,-19.2588 6.890152,-5.79982 19.921692,8.1994 27.041422,3.09635 7.11973,-5.10305 -9.705642,-24.29303 -2.14055,-29.07188 7.56508,-4.77885 10.19031,13.43962 18.08841,9.47231 7.89811,-3.96731 6.40813,-19.73005 14.6282,-23.25512 8.22006,-3.52507 8.74988,21.66559 17.22229,19.20547 8.47242,-2.46012 1.79552,-13.21633 10.64442,-15.02669 8.8489,-1.81035 11.9395,12.95849 20.82886,12.48001 8.88936,-0.47847 -3.27767,-24.17057 5.79016,-24.40242 9.06784,-0.23186 12.30517,16.38724 21.09084,17.83947 8.78566,1.45224 0.44956,-17.65063 9.48903,-16.49003 9.03947,1.1606 7.36756,21.01051 16.02467,23.57442 8.65711,2.56391 6.92844,-21.12036 15.3948,-18.00333 8.46636,3.11703 0.18582,23.99948 8.53392,27.52936 8.34809,3.52988 8.63688,-12.55558 15.88934,-7.26909 7.25245,5.28649 2.22426,26.40197 9.84169,31.43903 7.61743,5.03705 14.74056,-18.21241 21.28243,-11.86101 6.54186,6.3514 -4.89426,21.5578 0.95672,28.13475 5.85098,6.57695 7.40198,-17.73649 13.11786,-10.96496 5.71587,6.77152 -9.8162,25.57739 -5.07849,32.99284 4.73771,7.41546 28.72105,-5.19269 32.22949,2.87522 3.50844,8.06791 -11.94072,13.215 -8.86912,21.52606 3.07159,8.31106 20.23062,-5.80556 22.1516,2.83428 1.92099,8.63984 -19.21104,6.39583 -17.0445,15.28014 2.16655,8.88431 8.91611,3.91189 9.26928,12.92689 0.35318,9.01499 -14.4074,3.97606 -14.80538,13.08852 -0.39799,9.11247 21.56821,5.58551 21.15442,14.63166 -0.41378,9.04615 -9.29224,12.25743 -11.19941,21.02864 -1.90718,8.77122 11.56474,0.91528 9.05847,9.6831 -2.50627,8.76782 -23.32239,-3.46936 -25.78294,5.32801 -2.46055,8.79738 22.68779,10.74659 18.91084,18.81202 -3.77695,8.06541 -16.04311,-2.44338 -20.75823,5.1476 -4.71511,7.59098 9.49147,13.66112 4.07954,20.54633 -5.41194,6.88521 -25.07062,-3.34262 -31.08675,3.08066 -6.01612,6.42328 7.89293,15.11783 1.17893,20.89507 -6.71401,5.77725 -5.43687,-6.42365 -12.65873,-0.92851 -7.22186,5.49513 1.70711,32.29646 -5.85716,36.94202 z"
       transform="matrix(1.7901549,0,0,1.3917954,-11.14435,-39.443875)" />
    <path
       sodipodi:type="star"
       style="fill:url(#radialGradient4621);fill-opacity:1;fill-rule:nonzero;stroke:none"
       id="path4777"
       sodipodi:sides="35"
       sodipodi:cx="194"
       sodipodi:cy="387.36218"
       sodipodi:r1="170.3203"
       sodipodi:r2="153.28825"
       sodipodi:arg1="0.96488033"
       sodipodi:arg2="1.0546401"
       inkscape:flatsided="false"
       inkscape:rounded="0.4"
       inkscape:randomized="0.05"
       d="m 288.73812,535.85894 c -7.56427,4.64555 -9.15256,-11.57098 -16.76749,-6.95535 -7.61493,4.61563 -1.13257,4.85526 -9.29287,7.95854 -8.1603,3.10329 -11.16272,-14.71634 -19.86121,-11.86227 -8.69849,2.85407 -1.04248,23.72786 -9.71273,26.40857 -8.67024,2.6807 -13.96196,-12.55078 -22.83499,-10.92173 -8.87304,1.62906 9.66986,19.86422 0.84902,20.66995 -8.82083,0.80574 -13.20219,-20.50249 -21.93156,-21.35043 -8.72937,-0.84794 0.43471,14.52518 -8.4667,13.41439 -8.9014,-1.11078 -6.80899,-9.27651 -15.74363,-11.1827 -8.93465,-1.90619 -8.38613,17.64768 -16.588,14.65861 -8.20188,-2.98907 -8.43136,-31.57668 -16.89605,-35.03053 -8.46468,-3.45385 -11.06289,16.00409 -18.93145,11.44123 -7.86856,-4.56286 2.58768,-17.38018 -4.94494,-22.46877 -7.53262,-5.08859 -16.892447,11.55028 -24.092264,6.26877 -7.199815,-5.28151 17.297284,-15.1647 11.172072,-21.49025 -6.125217,-6.32554 -14.692514,11.81473 -20.845271,5.12151 -6.152755,-6.69322 -3.368207,-12.90835 -8.92146,-19.77691 -5.553253,-6.86856 -13.014851,0.73293 -18.253574,-6.64802 -5.238722,-7.38095 23.208336,-12.2739 19.206373,-20.13518 -4.001964,-7.86129 -30.14042,13.06899 -33.636641,4.97321 -3.49622,-8.09578 17.397295,-12.80517 15.350677,-21.69164 -2.046618,-8.88648 -19.553055,-11.36395 -21.918823,-19.93136 -2.365768,-8.56741 11.888882,-10.2621 10.520208,-18.91569 -1.368675,-8.65358 -11.340752,6.46144 -11.122437,-2.397 0.218316,-8.85843 14.21072,-3.14949 14.355293,-12.17629 0.144573,-9.0268 -21.855814,-16.79213 -20.389803,-25.51888 1.466012,-8.72674 23.570393,5.47421 25.965887,-3.15129 2.395495,-8.6255 -7.589827,-12.58534 -4.741627,-21.09338 2.848199,-8.50803 6.927563,1.54747 10.559616,-6.79747 3.632053,-8.34495 -8.920791,-8.01671 -4.471354,-15.53497 4.449437,-7.51826 21.78004,-4.63162 27.300169,-11.94812 5.520129,-7.3165 -14.34038,-17.75564 -8.319433,-24.61068 6.020946,-6.85504 16.088842,13.07002 22.407696,6.81574 6.318854,-6.25427 -14.50923,-13.45899 -7.619076,-19.2588 6.890152,-5.79982 19.921692,8.1994 27.041422,3.09635 7.11973,-5.10305 -9.705642,-24.29303 -2.14055,-29.07188 7.56508,-4.77885 10.19031,13.43962 18.08841,9.47231 7.89811,-3.96731 6.40813,-19.73005 14.6282,-23.25512 8.22006,-3.52507 8.74988,21.66559 17.22229,19.20547 8.47242,-2.46012 1.79552,-13.21633 10.64442,-15.02669 8.8489,-1.81035 11.9395,12.95849 20.82886,12.48001 8.88936,-0.47847 -3.27767,-24.17057 5.79016,-24.40242 9.06784,-0.23186 12.30517,16.38724 21.09084,17.83947 8.78566,1.45224 0.44956,-17.65063 9.48903,-16.49003 9.03947,1.1606 7.36756,21.01051 16.02467,23.57442 8.65711,2.56391 6.92844,-21.12036 15.3948,-18.00333 8.46636,3.11703 0.18582,23.99948 8.53392,27.52936 8.34809,3.52988 8.63688,-12.55558 15.88934,-7.26909 7.25245,5.28649 2.22426,26.40197 9.84169,31.43903 7.61743,5.03705 14.74056,-18.21241 21.28243,-11.86101 6.54186,6.3514 -4.89426,21.5578 0.95672,28.13475 5.85098,6.57695 7.40198,-17.73649 13.11786,-10.96496 5.71587,6.77152 -9.8162,25.57739 -5.07849,32.99284 4.73771,7.41546 28.72105,-5.19269 32.22949,2.87522 3.50844,8.06791 -11.94072,13.215 -8.86912,21.52606 3.07159,8.31106 20.23062,-5.80556 22.1516,2.83428 1.92099,8.63984 -19.21104,6.39583 -17.0445,15.28014 2.16655,8.88431 8.91611,3.91189 9.26928,12.92689 0.35318,9.01499 -14.4074,3.97606 -14.80538,13.08852 -0.39799,9.11247 21.56821,5.58551 21.15442,14.63166 -0.41378,9.04615 -9.29224,12.25743 -11.19941,21.02864 -1.90718,8.77122 11.56474,0.91528 9.05847,9.6831 -2.50627,8.76782 -23.32239,-3.46936 -25.78294,5.32801 -2.46055,8.79738 22.68779,10.74659 18.91084,18.81202 -3.77695,8.06541 -16.04311,-2.44338 -20.75823,5.1476 -4.71511,7.59098 9.49147,13.66112 4.07954,20.54633 -5.41194,6.88521 -25.07062,-3.34262 -31.08675,3.08066 -6.01612,6.42328 7.89293,15.11783 1.17893,20.89507 -6.71401,5.77725 -5.43687,-6.42365 -12.65873,-0.92851 -7.22186,5.49513 1.70711,32.29646 -5.85716,36.94202 z"
       transform="matrix(1.6219534,0,0,1.3449635,26.333983,-46.153711)" />
  </g>
  <g
     inkscape:groupmode="layer"
     id="layer4"
     inkscape:label="feuilles"
     transform="translate(-34.844224,-182.6026)">
    <path
       style="fill:url(#linearGradient15490);fill-opacity:1;fill-rule:evenodd;stroke:none"
       d="m 243,441.36218 c -12,10 -17,28 -17,28 0,0 9,-3 -23,3 -32,6 -86,22 -85,33 1,11 11,13 11,13 27,6 30,1 56,-6 26,-7 105,-27 105,-27 0,0 13,2 -3,12 -16,10 -19,8 -27,14 -8,6 -19,46 -26,65 -7,19 -19,52 -19,60 0,8 0,21 6,24 6,3 27,-5 30,-11 16,18 27,13 35,1 8,-12 32,-50 32,-50 0,37 41,74 40,82 -1,8 -3,16 9,15 12,-1 1,-39 9,-35 8,4 14,7 14,0 0,-7 10,-46 3,-59 0,0 21,25 27,25 6,0 15,-8 14,-16 -1,-8 -8,-42 -8,-42 0,0 11,20 19,22 8,2 16,-2 15,-8 -1,-6 -4,-21 -4,-21 0,0 18,22 24,25 6,3 30,22 37,8 7,-14 -5,-40 -13,-48 -8,-8 -28,-25 -39,-30 -11,-5 -43,-24 -34,-26 9,-2 12,-4 12,-4 0,0 0,-11 -22,-25 0,0 14,-16 24,-18 10,-2 26,-2 38,-9 12,-7 39,20 42,10 3,-10 -8,-40 -21,-42 -13,-2 -63,1 -77,4 -14,3 -41,14 -51,19 -10,5 -134,14 -133,14 z"
       id="path15482"
       sodipodi:nodetypes="ccsscscssssss" />
    <path
       style="fill:url(#linearGradient16385);fill-opacity:1;fill-rule:evenodd;stroke:none"
       d="m 290,495.36218 c -22,10 -13,-2 -28,14 -15,16 -29,59 -19,47 10,-12 23,-29 23,-29 0,0 -17,54 -15,67 2,13 36,-40 36,-40 0,0 8,49 19,49 11,0 11,-18 11,-18 l 10,8 c 0,0 7,-7 8,-16 1,-9 7,17 3,19 19,-8 4,-51 4,-51 0,0 21,41 26,43 5,2 -12,-18 -6,-26 l 8,12 3,0 0,-12 c 0,0 9,31 14,31 5,0 1,-10 1,-16 0,-6 12,5 16,11 4,6 -9,-22 -13,-29 -4,-7 7,-18 16,-9 9,9 13,25 13,25 0,0 -7,-27 -1,-24 6,3 17,26 22,28 5,2 10,8 13,4 3,-4 -14,-16 -5,-32 9,-16 21,-19 28,-19 7,0 34,23 32,29 -2,6 -8,12 -15,13 -7,1 3,22 13,17 24,-15 4,-32 4,-32 -13,-21 -48,-40 -51,-46 0,16 4,20 -6,15 -10,-5 10,-11 -9,-23 0,0 -19,-1 -21,-18 -2,-17 -18,-32 -18,-32 l -166,-19 c 0,0 6,-11 -2,5 -8,16 -8,25 -8,33 0,8 60,20 60,21 z"
       id="path15492" />
    <path
       sodipodi:type="star"
       style="fill:#ffffff;fill-opacity:1;fill-rule:nonzero;stroke:none"
       id="path18163"
       sodipodi:sides="105"
       sodipodi:cx="292"
       sodipodi:cy="663.36218"
       sodipodi:r1="13.453624"
       sodipodi:r2="1.3453624"
       sodipodi:arg1="0.7328151"
       sodipodi:arg2="0.76273503"
       inkscape:flatsided="false"
       inkscape:rounded="0"
       inkscape:randomized="0"
       d="m 302,672.36218 -9.02737,-8.07048 8.47123,8.65242 -8.52856,-8.59592 7.93862,9.14355 -7.99923,-9.09058 7.37759,9.60195 -7.44125,-9.55269 6.79015,10.02597 -6.85665,-9.98061 6.1784,10.4141 -6.24749,-10.3728 5.54454,10.76495 -5.61598,-10.72786 4.89082,11.07728 -4.96435,-11.04452 4.21961,11.34994 -4.29496,-11.32164 3.53327,11.58197 -3.61018,-11.55823 2.8343,11.77255 -2.9125,-11.75345 2.12518,11.92098 -2.20438,-11.90659 1.40846,12.02674 -1.48837,-12.01711 0.68668,12.08945 -0.76703,-12.08462 -0.0376,12.10888 -0.0429,-12.10886 -0.76164,12.08496 0.68129,-12.08975 -1.483,12.01777 1.40308,-12.02737 -2.19906,11.90758 2.11986,-11.92193 -2.90725,11.75475 2.82904,-11.77382 -3.60503,11.55984 3.52811,-11.58355 -4.2899,11.32356 4.21453,-11.35182 -4.95942,11.04673 4.88588,-11.07946 -5.61118,10.73037 5.53973,-10.76743 -6.24287,10.37559 6.17376,-10.41686 -6.8522,9.98367 6.78568,-10.029 -7.43699,9.55601 7.3733,-9.60524 -7.99517,9.09415 7.93454,-9.14709 -8.52473,8.59972 8.46738,-8.6562 -9.02377,8.07452 8.96989,-8.13433 -9.4905,7.52041 9.4403,-7.58333 -9.92327,6.93937 9.87692,-7.00518 -10.32051,6.3335 10.27818,-6.40197 -10.68081,5.70496 10.64265,-5.77583 -11.00287,5.05598 10.96902,-5.12901 -11.28555,4.38892 11.25613,-4.46384 -11.52783,3.70614 11.50293,-3.78269 -11.72883,3.01009 11.70857,-3.08799 -11.88786,2.30327 11.87228,-2.38225 -12.00432,1.58821 11.9935,-1.66797 -12.07782,0.86746 12.07179,-0.94773 -12.10808,0.1436 12.10685,-0.22408 -12.09499,-0.58077 12.09859,0.50035 -12.03862,-1.30306 12.04701,1.22301 -11.93913,-2.02069 11.9523,1.94128 -11.79692,-2.73108 11.81482,2.6526 -11.61248,-3.4317 11.63503,3.35443 -11.38646,-4.12003 11.4136,4.04425 -11.11969,-4.79362 11.15131,4.71959 -10.81311,-5.45003 10.8491,5.37803 -10.46782,-6.08695 10.50805,6.01723 -10.08506,-6.70207 10.12939,6.63488 -9.6662,-7.2932 9.71447,7.22879 -9.21273,-7.85823 9.26476,7.79681 -8.72628,-8.39512 8.78189,8.33693 -8.2086,-8.90197 8.2676,8.84721 -7.66154,-9.37695 7.7237,9.32581 -7.08704,-9.81835 7.15215,9.77102 -6.48718,-10.22461 6.55501,10.18126 -5.8641,-10.59427 5.93439,10.55506 -5.22001,-10.92601 5.29253,10.89107 -4.55725,-11.21863 4.63172,11.18808 -3.87817,-11.47109 3.95434,11.44506 -3.18521,-11.68249 3.2628,11.66106 -2.48085,-11.85207 2.55958,11.83531 -1.76761,-11.97922 1.8472,11.96721 -1.04803,-12.06349 1.1282,12.05626 -0.32471,-12.10458 0.40517,12.10215 0.39977,-12.10233 -0.31931,12.10472 1.12282,-12.05676 -1.04265,12.06396 1.84186,-11.96803 -1.76226,11.98001 2.5543,-11.83646 -2.47556,11.85318 3.2576,-11.66252 -3.18,11.68391 3.94923,-11.44682 -3.87305,11.47282 4.62673,-11.19015 -4.55225,11.22066 5.28767,-10.89343 -5.21514,10.92834 5.92968,-10.5577 -5.85936,10.59688 6.55046,-10.18418 -6.48262,10.2275 7.14779,-9.77421 -7.08266,9.82151 7.71954,-9.32925 -7.65735,9.38036 8.26365,-8.85089 -8.20463,8.90563 8.77817,-8.34085 -8.72253,8.39902 9.26128,-7.80096 -9.20922,7.86235 9.71123,-7.23313 -9.66293,7.29752 10.12642,-6.6394 -10.08206,6.70657 10.50536,-6.02192 -10.4651,6.09162 10.84669,-5.38288 -10.81067,5.45487 11.1492,-4.72457 -11.11755,4.79858 11.4118,-4.04934 -11.38463,4.12511 11.63354,-3.35962 -11.61095,3.43688 11.81363,-2.65788 -11.7957,2.73635 11.95144,-1.94661 -11.93823,2.02601 12.04646,-1.22838 -12.03803,1.30843 12.09836,-0.50575 -12.09473,0.58617 12.10695,0.21868 -12.10814,-0.1382 12.07221,0.94234 -12.07821,-0.86207 11.99425,1.66262 -12.00503,-1.58285 11.87334,2.37695 -11.88888,-2.29797 11.70994,3.08277 -11.73018,-3.00486 11.50462,3.77756 -11.52947,-3.701 11.25811,4.45882 -11.2875,-4.38388 10.9713,5.12412 -11.00512,-5.05108 10.64522,5.77108 -10.68335,-5.70019 10.28104,6.39738 -10.32334,-6.32889 9.88005,7.00077 -9.92637,-6.93494 9.44369,7.57911 -9.49386,-7.51617 8.97352,8.13032 z"
       transform="matrix(1.9069182,0,0,1.6364166,-20.907093,-623.17614)" />
    <path
       sodipodi:type="star"
       style="fill:#ffffff;fill-opacity:1;fill-rule:nonzero;stroke:none"
       id="path19050"
       sodipodi:sides="200"
       sodipodi:cx="292"
       sodipodi:cy="663.36218"
       sodipodi:r1="13.453624"
       sodipodi:r2="1.3453624"
       sodipodi:arg1="0.7328151"
       sodipodi:arg2="0.74852306"
       inkscape:flatsided="false"
       inkscape:rounded="0"
       inkscape:randomized="0"
       d="m 302,672.36218 -9.01426,-8.0844 8.72663,8.39407 -8.75588,-8.36356 8.45866,8.66404 -8.48885,-8.63446 8.18234,8.92545 -8.21344,-8.89684 7.89795,9.17807 -7.92994,-9.15044 7.60576,9.42161 -7.6386,-9.39501 7.30607,9.65587 -7.33973,-9.63031 6.99917,9.8806 -7.03361,-9.85611 6.68535,10.09557 -6.72055,-10.07217 6.36495,10.30058 -6.40086,-10.2783 6.03825,10.49542 -6.07485,-10.47428 5.70561,10.67991 -5.74285,-10.65993 5.36732,10.85386 -5.40518,-10.83506 5.02376,11.01709 -5.06218,-10.99949 4.67522,11.16946 -4.71418,-11.15307 4.32207,11.3108 -4.36152,-11.29565 3.96465,11.44098 -4.00456,-11.42707 3.60333,11.55986 -3.64366,-11.54721 3.23845,11.66734 -3.27915,-11.65597 2.87037,11.76331 -2.91141,-11.75322 2.49945,11.84767 -2.54079,-11.83887 2.12608,11.92033 -2.16768,-11.91284 1.75061,11.98123 -1.79242,-11.97504 1.3734,12.0303 -1.41538,-12.02544 0.99484,12.06751 -1.03696,-12.06396 0.61531,12.0928 -0.65751,-12.09058 0.23515,12.10616 -0.27741,-12.10527 -0.14522,12.10758 0.10296,-12.10801 -0.52546,12.09704 0.48324,-12.0988 -0.90518,12.07457 0.86302,-12.07765 -1.284,12.04017 1.24197,-12.04458 -1.66156,11.9939 1.61969,-11.99963 -2.03748,11.93579 1.9958,-11.94283 -2.41138,11.86591 2.36995,-11.87425 -2.78291,11.7843 2.74176,-11.79394 -3.15169,11.69107 3.11086,-11.702 -3.51736,11.58631 3.4769,-11.59852 -3.87956,11.47011 3.8395,-11.48358 -4.23793,11.34259 4.19832,-11.35732 -4.59213,11.20388 4.55299,-11.21984 -4.94178,11.05411 4.90317,-11.07129 -5.28656,10.89343 5.2485,-10.91181 -5.62612,10.72199 5.58866,-10.74157 -5.96013,10.53999 5.92331,-10.56073 -6.28826,10.34758 6.2521,-10.36946 -6.61018,10.14495 6.57473,-10.16796 -6.92558,9.93231 6.89087,-9.95643 -7.23414,9.70988 7.2002,-9.73507 -7.53557,9.47785 7.50245,-9.50409 -7.82956,9.23647 7.79727,-9.26374 -8.11582,8.98598 8.0844,-9.01426 -8.39407,8.72663 8.36356,-8.75587 -8.66404,8.45866 8.63447,-8.48885 -8.92546,8.18234 8.89684,-8.21345 -9.17806,7.89795 9.15044,-7.92993 -9.42162,7.60576 9.39501,-7.6386 -9.65587,7.30606 9.63031,-7.33972 -9.88059,6.99916 9.8561,-7.03361 -10.09557,6.68536 10.07218,-6.72056 -10.30058,6.36495 10.2783,-6.40086 -10.49543,6.03825 10.47429,-6.07485 -10.67992,5.70561 10.65994,-5.74285 -10.85386,5.36733 10.83505,-5.40518 -11.01709,5.02375 10.99949,-5.06218 -11.16946,4.67522 11.15308,-4.71418 -11.3108,4.32207 11.29564,-4.36152 -11.44098,3.96466 11.42707,-4.00457 -11.55986,3.60333 11.54722,-3.64366 -11.66735,3.23845 11.65597,-3.27915 -11.76331,2.87037 11.75322,-2.91141 -11.84767,2.49946 11.83887,-2.5408 -11.92033,2.12608 11.91284,-2.16768 -11.98123,1.75061 11.97505,-1.79241 -12.03031,1.3734 12.02544,-1.41539 -12.06751,0.99484 12.06396,-1.03695 -12.0928,0.6153 12.09058,-0.65751 -12.10616,0.23516 12.10527,-0.27741 -12.10758,-0.14523 12.10801,0.10297 -12.09704,-0.52547 12.0988,0.48324 -12.07456,-0.90518 12.07765,0.86303 -12.04018,-1.28401 12.04459,1.24197 -11.99391,-1.66156 11.99963,1.61969 -11.93579,-2.03748 11.94283,1.99581 -11.8659,-2.41139 11.87425,2.36995 -11.78431,-2.78291 11.79395,2.74176 -11.69108,-3.15169 11.70201,3.11087 -11.58631,-3.51737 11.59851,3.4769 -11.47011,-3.87956 11.48359,3.8395 -11.3426,-4.23793 11.35732,4.19832 -11.20388,-4.59212 11.21984,4.55298 -11.05411,-4.94178 11.07129,4.90317 -10.89343,-5.28656 10.91182,5.2485 -10.722,-5.62612 10.74157,5.58867 -10.53999,-5.96014 10.56073,5.92331 -10.34757,-6.28826 10.36945,6.2521 -10.14494,-6.61018 10.16796,6.57473 -9.93232,-6.92558 9.95643,6.89087 -9.70987,-7.23414 9.73506,7.20021 -9.47785,-7.53557 9.50409,7.50244 -9.23647,-7.82956 9.26375,7.79727 -8.98599,-8.11582 9.01426,8.08441 -8.72663,-8.39407 8.75588,8.36356 -8.45866,-8.66404 8.48885,8.63446 -8.18234,-8.92546 8.21344,8.89684 -7.89795,-9.17806 7.92994,9.15044 -7.60576,-9.42162 7.6386,9.39502 -7.30607,-9.65588 7.33973,9.63031 -6.99917,-9.88059 7.03361,9.8561 -6.68535,-10.09556 6.72055,10.07217 -6.36495,-10.30058 6.40086,10.2783 -6.03825,-10.49543 6.07485,10.47429 -5.70561,-10.67991 5.74285,10.65993 -5.36732,-10.85386 5.40518,10.83506 -5.02376,-11.0171 5.06218,10.9995 -4.67522,-11.16946 4.71418,11.15307 -4.32207,-11.3108 4.36152,11.29564 -3.96465,-11.44097 4.00456,11.42707 -3.60333,-11.55987 3.64366,11.54722 -3.23845,-11.66735 3.27915,11.65597 -2.87037,-11.76331 2.91141,11.75322 -2.49945,-11.84766 2.54079,11.83887 -2.12608,-11.92033 2.16768,11.91283 -1.75061,-11.98123 1.79242,11.97505 -1.3734,-12.03031 1.41538,12.02544 -0.99484,-12.06751 1.03696,12.06397 -0.61531,-12.09281 0.65751,12.09058 -0.23515,-12.10616 0.27741,12.10527 0.14522,-12.10757 -0.10296,12.108 0.52546,-12.09704 -0.48324,12.0988 0.90518,-12.07456 -0.86302,12.07765 1.284,-12.04017 -1.24197,12.04458 1.66156,-11.9939 -1.61969,11.99962 2.03748,-11.93579 -1.9958,11.94283 2.41138,-11.8659 -2.36995,11.87425 2.78291,-11.78431 -2.74176,11.79395 3.15169,-11.69108 -3.11086,11.70201 3.51736,-11.58631 -3.4769,11.59852 3.87956,-11.47011 -3.8395,11.48358 4.23793,-11.34259 -4.19832,11.35731 4.59213,-11.20388 -4.55299,11.21984 4.94178,-11.05411 -4.90317,11.07129 5.28656,-10.89342 -5.2485,10.91181 5.62612,-10.722 -5.58866,10.74157 5.96013,-10.53998 -5.92331,10.56072 6.28826,-10.34757 -6.2521,10.36946 6.61018,-10.14495 -6.57473,10.16796 6.92558,-9.93231 -6.89087,9.95642 7.23414,-9.70987 -7.2002,9.73506 7.53557,-9.47785 -7.50245,9.5041 7.82956,-9.23648 -7.79727,9.26375 8.11582,-8.98599 -8.0844,9.01426 8.39407,-8.72663 -8.36356,8.75588 8.66404,-8.45866 -8.63447,8.48885 8.92546,-8.18234 -8.89684,8.21344 9.17806,-7.89795 -9.15044,7.92994 9.42162,-7.60576 -9.39501,7.6386 9.65587,-7.30607 -9.63031,7.33973 9.88059,-6.99917 -9.8561,7.03361 10.09557,-6.68535 -10.07218,6.72055 10.30058,-6.36494 -10.2783,6.40086 10.49543,-6.03826 -10.47429,6.07485 10.67992,-5.7056 -10.65994,5.74285 10.85386,-5.36733 -10.83505,5.40518 11.01709,-5.02375 -10.99949,5.06217 11.16946,-4.67521 -11.15308,4.71417 11.3108,-4.32207 -11.29564,4.36152 11.44098,-3.96465 -11.42707,4.00456 11.55986,-3.60332 -11.54722,3.64365 11.66735,-3.23845 -11.65597,3.27916 11.76331,-2.87037 -11.75322,2.91141 11.84767,-2.49946 -11.83887,2.5408 11.92033,-2.12608 -11.91284,2.16767 11.98123,-1.7506 -11.97505,1.79241 12.03031,-1.3734 -12.02544,1.41538 12.06751,-0.99484 -12.06396,1.03696 12.0928,-0.6153 -12.09058,0.6575 12.10616,-0.23515 -12.10527,0.27741 12.10758,0.14522 -12.10801,-0.10296 12.09704,0.52546 -12.0988,-0.48323 12.07456,0.90518 -12.07765,-0.86303 12.04018,1.284 -12.04459,-1.24197 11.99391,1.66156 -11.99963,-1.61968 11.93579,2.03748 -11.94283,-1.99581 11.8659,2.41139 -11.87425,-2.36996 11.78431,2.78292 -11.79395,-2.74177 11.69108,3.1517 -11.70201,-3.11087 11.58631,3.51736 -11.59851,-3.4769 11.47011,3.87957 -11.48359,-3.83951 11.3426,4.23794 -11.35732,-4.19832 11.20388,4.59212 -11.21984,-4.55299 11.05411,4.94178 -11.07129,-4.90316 10.89343,5.28655 -10.91182,-5.2485 10.722,5.62612 -10.74157,-5.58866 10.53999,5.96013 -10.56073,-5.9233 10.34757,6.28825 -10.36945,-6.2521 10.14494,6.61018 -10.16796,-6.57473 9.93232,6.92558 -9.95643,-6.89087 9.70987,7.23415 -9.73506,-7.20021 9.47785,7.53557 -9.50409,-7.50244 9.23647,7.82955 -9.26375,-7.79727 8.98599,8.11582 z"
       transform="matrix(3.4850837,0,0,2.5397788,-518.59648,-1081.1295)" />
    <path
       sodipodi:type="star"
       style="fill:#ffffff;fill-opacity:1;fill-rule:nonzero;stroke:none"
       id="path19052"
       sodipodi:sides="120"
       sodipodi:cx="292"
       sodipodi:cy="663.36218"
       sodipodi:r1="13.453624"
       sodipodi:r2="1.3453624"
       sodipodi:arg1="0.7328151"
       sodipodi:arg2="0.75899504"
       inkscape:flatsided="false"
       inkscape:rounded="0"
       inkscape:randomized="0"
       d="m 302,672.36218 -9.0239,-8.07413 8.53917,8.58516 -8.58897,-8.53534 8.07816,9.02029 -8.13049,-8.97315 7.595,9.43071 -7.64973,-9.38637 7.09103,9.81528 -7.148,-9.77387 6.56762,10.17295 -6.62668,-10.13457 6.0262,10.50272 -6.08719,-10.46749 5.46827,10.80372 -5.53103,-10.77173 4.89536,11.0751 -4.95969,-11.04644 4.30902,11.31613 -4.37478,-11.29087 3.71088,11.52613 -3.77786,-11.50435 3.10256,11.70455 -3.17059,-11.68631 2.48574,11.85089 -2.55463,-11.83623 1.86211,11.96474 -1.93168,-11.9537 1.23337,12.04579 -1.30341,-12.03842 0.60125,12.09384 -0.67159,-12.09013 -0.0325,12.10873 -0.0379,-12.10872 -0.66619,12.09044 0.59585,-12.09411 -1.29804,12.039 1.22799,-12.04635 -1.92633,11.95457 1.85676,-11.96557 -2.54935,11.83737 2.48045,-11.852 -3.16537,11.68772 3.09733,-11.70593 -3.77272,11.50604 3.70573,-11.52779 -4.36973,11.29282 4.30397,-11.31805 -4.95477,11.04865 4.89042,-11.07728 -5.52622,10.77419 5.46345,-10.80616 -6.08252,10.47021 6.02152,-10.50541 -6.62216,10.13753 6.56308,-10.17588 -7.14364,9.77706 7.08664,-9.81845 -7.64554,9.38979 7.5908,-9.4341 -8.12649,8.97678 8.07413,-9.0239 -8.58516,8.53917 8.53535,-8.58896 -9.0203,8.07816 8.97315,-8.1305 -9.43071,7.59501 9.38638,-7.64973 -9.81529,7.09102 9.77387,-7.148 -10.17294,6.56762 10.13457,-6.62668 -10.50273,6.0262 10.4675,-6.08719 -10.80372,5.46828 10.77172,-5.53103 -11.0751,4.89536 11.04644,-4.9597 -11.31612,4.30902 11.29087,-4.37477 -11.52614,3.71088 11.50436,-3.77787 -11.70456,3.10257 11.68631,-3.1706 -11.85089,2.48575 11.83623,-2.55464 -11.96474,1.86211 11.95371,-1.93167 -12.0458,1.23337 12.03842,-1.30342 -12.09384,0.60125 12.09014,-0.67159 -12.10873,-0.0325 12.10871,-0.0379 -12.09043,-0.6662 12.0941,0.59586 -12.039,-1.29805 12.04635,1.228 -11.95457,-1.92634 11.96557,1.85677 -11.83736,-2.54936 11.85199,2.48046 -11.68772,-3.16538 11.70593,3.09734 -11.50603,-3.77273 11.52779,3.70573 -11.29283,-4.36973 11.31805,4.30397 -11.04865,-4.95477 11.07729,4.89042 -10.7742,-5.52622 10.80616,5.46346 -10.47021,-6.08253 10.50541,6.02152 -10.13752,-6.62216 10.17587,6.56308 -9.77705,-7.14364 9.81844,7.08665 -9.38979,-7.64554 9.4341,7.59079 -8.97678,-8.12649 9.0239,8.07413 -8.53917,-8.58515 8.58897,8.53534 -8.07816,-9.0203 8.13049,8.97316 -7.595,-9.43072 7.64973,9.38638 -7.09103,-9.81528 7.148,9.77386 -6.56762,-10.17294 6.62668,10.13457 -6.0262,-10.50273 6.08719,10.4675 -5.46827,-10.80372 5.53103,10.77173 -4.89536,-11.0751 4.95969,11.04643 -4.30902,-11.31612 4.37478,11.29087 -3.71088,-11.52614 3.77786,11.50436 -3.10256,-11.70455 3.17059,11.6863 -2.48574,-11.85088 2.55463,11.83622 -1.86211,-11.96473 1.93168,11.9537 -1.23337,-12.0458 1.30341,12.03842 -0.60125,-12.09384 0.67159,12.09014 0.0325,-12.10873 0.0379,12.10871 0.66619,-12.09043 -0.59585,12.0941 1.29804,-12.03899 -1.22799,12.04634 1.92633,-11.95456 -1.85676,11.96556 2.54935,-11.83736 -2.48045,11.85199 3.16537,-11.68772 -3.09733,11.70594 3.77272,-11.50604 -3.70573,11.52779 4.36973,-11.29282 -4.30397,11.31804 4.95477,-11.04865 -4.89042,11.07729 5.52622,-10.7742 -5.46345,10.80616 6.08252,-10.47021 -6.02152,10.50542 6.62216,-10.13753 -6.56308,10.17587 7.14364,-9.77705 -7.08664,9.81844 7.64554,-9.38979 -7.5908,9.43411 8.12649,-8.97679 -8.07413,9.0239 8.58516,-8.53917 -8.53535,8.58897 9.0203,-8.07816 -8.97315,8.13049 9.43071,-7.595 -9.38638,7.64973 9.81529,-7.09103 -9.77387,7.148 10.17294,-6.56761 -10.13457,6.62668 10.50273,-6.02621 -10.4675,6.0872 10.80372,-5.46828 -10.77172,5.53103 11.0751,-4.89536 -11.04644,4.9597 11.31612,-4.30903 -11.29087,4.37478 11.52614,-3.71088 -11.50436,3.77786 11.70456,-3.10256 -11.68631,3.17059 11.85089,-2.48574 -11.83623,2.55463 11.96474,-1.8621 -11.95371,1.93167 12.0458,-1.23337 -12.03842,1.30342 12.09384,-0.60125 -12.09014,0.67158 12.10873,0.0325 -12.10871,0.0379 12.09043,0.66619 -12.0941,-0.59585 12.039,1.29804 -12.04635,-1.22799 11.95457,1.92634 -11.96557,-1.85677 11.83736,2.54935 -11.85199,-2.48045 11.68772,3.16538 -11.70593,-3.09734 11.50603,3.77273 -11.52779,-3.70574 11.29283,4.36974 -11.31805,-4.30398 11.04865,4.95477 -11.07729,-4.89041 10.7742,5.52621 -10.80616,-5.46345 10.47021,6.08252 -10.50541,-6.02151 10.13752,6.62215 -10.17587,-6.56307 9.77705,7.14363 -9.81844,-7.08664 9.38979,7.64554 -9.4341,-7.59079 8.97678,8.12648 z"
       transform="matrix(2.7375647,0,0,2.1048001,-638.87708,-836.23221)" />
  </g>
  <g
     inkscape:groupmode="layer"
     id="layer2"
     inkscape:label="dessin"
     style="display:inline"
     transform="translate(-34.844224,-182.6026)">
    <path
       style="color:#000000;fill:none;stroke:#a7a7a7;stroke-width:6.55247355000000020;stroke-opacity:0;marker:none;visibility:visible;display:inline;overflow:visible;enable-background:accumulate"
       clip-path="none"
       d="m 91.406724,691.0401 c 29.275516,75.73738 132.761736,131.71875 255.937496,131.71875 123.17576,0 226.66198,-55.98137 255.9375,-131.71875"
       id="path4644"
       sodipodi:nodetypes="csc" />
    <path
       style="fill:url(#linearGradient15479);fill-opacity:1;fill-rule:evenodd;stroke:none"
       d="m 447.69018,360.03328 c 15.08009,-8.48255 -36.75772,83.88301 -36.75772,83.88301 0,0 12.25258,3.77002 27.33267,-10.36757 15.08009,-14.13758 23.56264,-26.39015 49.01029,-42.41275 25.44765,-16.0226 43.35526,-20.73512 49.0103,-16.0226 5.65503,4.71253 6.59753,10.36757 5.65503,16.96511 -0.94251,6.59754 -14.13759,34.8727 -21.67763,39.58523 -7.54005,4.71253 -41.47025,32.04519 -68.80291,45.24028 0,0 -48.2872,18.63425 -58.65477,18.63425 -10.36757,0 17.18452,0.21586 31.3221,6.8134 14.13759,6.59754 48.06779,31.10268 51.83781,30.16018 3.77003,-0.94251 1.88501,12.25257 -17.9076,18.85011 -19.79262,6.59754 -66.91791,-9.42506 -82.9405,-20.73512 -16.0226,-11.31007 -25.73473,-17.49143 -25.73473,-17.49143 0,0 -6.31046,13.7214 -23.27556,11.83639 -15.9584,1.78841 -33.18888,-10.84728 -33.18888,-10.84728 0,0 -29.86616,12.63569 -67.7732,16.08178 -37.90705,3.4461 -35.60965,8.04089 -56.28622,0 -20.67657,-8.04089 -29.86616,-18.37917 -31.01486,-28.71746 0,0 -8.04089,4.59479 22.97397,1.1487 31.01486,-3.4461 102.23415,-16.08178 102.23415,-16.08178 -3.44609,-8.04089 1.1487,-19.52787 1.1487,-19.52787 0,0 -36.75835,-20.67657 -52.84012,-35.60965 -16.08178,-14.93308 -48.24533,-50.54273 -50.54273,-63.17841 -2.2974,-12.63568 -3.4461,-21.82527 -3.4461,-21.82527 0,0 3.4461,0 12.63569,0 35.60965,17.23048 58.58361,34.46095 58.58361,34.46095 0,0 4.5948,-8.04088 2.2974,-17.23047 -2.2974,-9.18959 -13.78438,-29.86616 -1.1487,-35.60965 12.63568,-5.74349 28.71746,22.97397 28.71746,22.97397 0,0 -12.63568,-28.71746 -6.89219,-36.75835 5.74349,-8.04089 21.82527,5.74349 21.82527,-1.1487 0,-6.89219 -5.74349,-31.01485 -1.1487,-44.79923 4.59479,-13.78438 34.46095,6.89219 35.60965,11.48698 1.1487,4.59479 27.56876,41.35314 27.56876,41.35314 0,0 -2.2974,-9.18959 12.63568,-19.52787 14.93308,-10.33829 11.48699,-14.93308 22.97397,-3.4461 17.23047,-4.59479 25.27136,-2.29739 34.46095,8.04089 8.04089,-16.08178 11.48698,-28.71746 20.67657,-28.71746 11.48698,-11.48698 11.48698,-14.93308 20.67657,-8.04089 9.18959,6.89219 -10.33829,99.93676 -10.33829,99.93676 l 11.18481,-9.35522 z"
       id="path2003"
       sodipodi:nodetypes="ccsssssczsssscscsscsccsscscsscsssscscccsc" />
    <path
       style="fill:url(#linearGradient2900);fill-opacity:1;fill-rule:evenodd;stroke:none"
       d="m 329.5,486.36218 c -6,19.5 -11.5,26.5 -21.5,33.5 0,0 17,5.5 24,3 7,-2.5 19,-14 19,-14 0,0 -3.5,0.5 16.5,13.5 20,13 37,19.5 34.5,18.5 -16.5,-17 -5,-27.5 -5,-27.5 0,0 7,5 9,13 2,8 6.5,12.5 14,16 7.5,3.5 21.5,1.5 26.5,-2 5,-3.5 11.5,-15.5 11.5,-15.5 0,0 -15.5,-11 -26.5,-16.5 -11,-5.5 -26,-7.5 -38.5,-10 -12.5,-2.5 4,-7 4,-7 l 17.5,-3 -9.5,-1 -0.5,-7.5 c 0,0 -16.5,9 -12,0 4.5,-9 10,-15.5 10,-15.5 0,0 -17,21.5 -13.5,13 3.5,-8.5 17,-42 22,-48 5,-6 4.5,-7 4.5,-7 0,0 -3.5,3 -15.5,13.5 -12,10.5 -27,39 -35.5,39 -8.5,0 2,-34 -1,-36 -3,-2 -2.5,21 -9.5,10.5 -7,-10.5 -13,-28 -16,-26 -3,2 2.5,26 -2.5,26 -5,0 -32,-41.5 -32,-41.5 0,0 15.5,49.5 9,42 -6.5,-7.5 -5.5,-2 -5.5,-2 0,0 4.5,16 0.5,6 -4,-10 -27.5,-52 -26,-61 0,0 2.5,40.5 -6.5,34.5 0,0 13.5,27 13,35 -0.5,8 -55.5,-70 -56.5,-76 -1,-6 -59.5,-37.5 -59.5,-37.5 0,0 -14,-3 -13.5,-0.5 0.5,2.5 13.5,25 17,29.5 3.5,4.5 22.5,21 26.5,23 4,2 56,28.5 58.5,34.5 2.5,6 -8.5,9 -8.5,9 0,0 18,17.5 17.5,23 -0.5,5.5 13,9 13.5,13 0.5,4 7,-1 7,-1 0,0 -7,-7.5 -4,-6.5 3,1 4,6 6.5,6.5 2.5,0.5 15.5,1.5 21.5,2 6,0.5 15.5,4 15.5,5 z"
       id="path2006"
       sodipodi:nodetypes="ccscsccssscssccccscsscsssssscscss" />
    <path
       style="fill:url(#linearGradient2906);fill-opacity:0.75;fill-rule:evenodd;stroke:none"
       d="m 532,375.86218 c -1,5.5 3.5,5 3.5,5 l -4.5,5 c 0,0 -0.5,9 2,9 2.5,0 -14.5,8.5 -9,11.5 5.5,3 -35,43.5 -17,29.5 18,-14 30.5,-31 31.5,-38 1,-7 2.5,-12 0.5,-16.5 -2,-4.5 -7,-6.5 -7,-5.5 z"
       id="path2904" />
    <path
       style="fill:url(#linearGradient2928);fill-opacity:0.75;fill-rule:evenodd;stroke:none"
       d="m 266.5,472.36218 c 0,19.5 14,31.5 21,37 l 10.5,0.5 c 0,0 -5.5,2 -10.5,4.5 -5,2.5 -52,13.5 -52,13.5 0,0 -48.5,7 -54,6.5 -5.5,-0.5 -19.5,-8.5 -19.5,-8.5 0,0 30,7 37.5,3.5 7.5,-3.5 32.5,-13 32,-18 -0.5,-5 -13.5,-1.5 -17.5,-5 -4,-3.5 -4,-10 -4,-10 l 55,-9.5 c 0,0 -2.5,-4.5 1.5,-14.5 z"
       id="path2926"
       sodipodi:nodetypes="cccscscsssccc" />
    <path
       style="fill:url(#linearGradient2936);fill-opacity:0.75;fill-rule:evenodd;stroke:none;display:inline"
       d="m 381.36224,366.29468 c 14,2.5 15,6 16,12 1,6 -4.5,15 1.5,12.5 6,-2.5 9.5,-2.5 11.5,1 2,3.5 -0.5,18.5 -0.5,18.5 0,0 -4.5,1.5 -11,-5.5 -6.5,-7 -1.5,-21 -6.5,-26 -5,-5 -2.5,-12 -14.5,-7 -12,5 -12,2 -12,2 0,0 4.5,-5 8.5,-6.5 4,-1.5 2,0.5 2,0.5 l 5,-1.5 z"
       id="path2930"
       sodipodi:nodetypes="cssscssscscc" />
    <path
       style="fill:url(#linearGradient2956);fill-opacity:0.75;fill-rule:evenodd;stroke:none"
       d="m 260.5,318.86218 c -3.69615,-1.97028 6.5,31 9,36.5 16,-0.5 23.5,3 24.5,3.5 1,0.5 -20.6867,-37.2338 -33.5,-40 z"
       id="path2940"
       sodipodi:nodetypes="ccsc" />
    <path
       style="fill:url(#linearGradient2966);fill-opacity:1;fill-rule:evenodd;stroke:none"
       d="m 230,348.36218 c 1,-7.5 25,10.5 25,10.5 -4,-11.5 -10,-22 -18.5,-24.5 -13,-0.5 -12,7.5 -6.5,14 z"
       id="path2944" />
    <path
       style="fill:url(#linearGradient2958);fill-opacity:1;fill-rule:evenodd;stroke:none"
       d="m 275,314.86218 c 15.5,10 22.5,29.5 22.5,29.5 1.5,-15.5 13.5,3 13.5,3 1.5,-24.5 -33.5,-80.5 -33.5,-80.5 -13,12.5 -2,47.5 -2.5,48 z"
       id="path2946" />
    <path
       style="fill:url(#linearGradient2982);fill-opacity:1;fill-rule:evenodd;stroke:none"
       d="m 376.5,305.36218 c 9.5,11 8.5,15 8,22.5 -0.5,7.5 -2,15.5 1,20 5.5,-19 15.5,-32.5 15.5,-32.5 0,0 -5,0 -10.5,-5.5 -5.5,-5.5 -14.5,-5 -14,-4.5 z"
       id="path2948" />
    <path
       style="fill:url(#linearGradient2990);fill-opacity:1;fill-rule:evenodd;stroke:none"
       d="m 445.5,293.86218 c -2.5,8 -8,10.5 -8,10.5 0,0 0,25 3.5,16.5 3.5,-8.5 4.5,-26.5 4.5,-27 z"
       id="path2950" />
    <path
       style="fill:url(#linearGradient2998);fill-opacity:1;fill-rule:evenodd;stroke:none"
       d="m 411.5,295.86218 c 8.5,-9.5 4,-10 9.5,-13 5.5,-3 7.5,1.5 9.5,-3.5 2,-5 2.5,-8 8,-8.5 5.5,-0.5 8,7.5 8,7.5 l 0.39149,-0.20907 c 0,0 1.76776,-1.06066 0,-5.65685 -1.76777,-4.5962 -3.53554,-5.65686 -7.77818,-5.65686 -4.24264,0 -2.82843,1.41422 -7.77817,5.65686 -4.94975,4.24264 -3.88909,5.3033 -3.88909,5.3033 0,0 -4.59619,0 -7.77818,2.47487 -3.18198,2.47487 -4.59619,6.36396 -8.16787,15.58775 z"
       id="path2952"
       sodipodi:nodetypes="csssc" />
    <path
       style="fill:url(#linearGradient2974);fill-opacity:1;fill-rule:evenodd;stroke:none"
       d="m 440.52752,332.24678 c -5.3033,27.22361 -9.89949,37.83021 -7.42462,38.18377 2.47488,0.35355 2.47488,4.24264 6.71752,0 4.24264,-4.24265 20.85965,-23.33453 8.48528,-8.48529 -12.37437,14.84925 -23.68808,35.7089 -29.69849,31.81981 -6.0104,-3.88909 -7.77817,-9.54594 -13.08147,-10.6066 -5.3033,-1.06066 -6.01041,-6.71752 -9.19239,-13.43503 -3.18198,-6.71752 -15.55635,-3.88909 -6.71751,-13.43503 8.83883,-9.54594 9.89949,-20.5061 13.43503,-16.61701 3.53553,3.88909 -8.13173,26.5165 2.47487,18.73833 10.6066,-7.77817 13.08147,-20.15254 14.14213,-9.89949 1.06066,10.25304 -15.55634,30.40559 -4.94974,20.50609 10.6066,-9.89949 25.45584,-36.06244 25.80939,-36.76955 z"
       id="path2954" />
    <path
       style="fill:url(#linearGradient12796);fill-opacity:1;fill-rule:evenodd;stroke:none"
       d="m 335,419.36218 c -12.5,-28 -17,-30.5 -21.5,-35 -4.5,-4.5 -18.5,-8 -22,-12.5 -4,-8.5 -1,-11 -1,-11 4.5,5.5 18,17.5 13,11.5 0,-10.5 -5,-19 -5,-19 14,-0.5 18,9.5 20,13 2,3.5 6,5 6,5 0,0 2.5,-8.5 0,-14.5 -2.5,-6 6.5,9.5 6,6 -0.5,-3.5 -5,-26.5 -1,-26 4,0.5 8,47.5 10.5,45.5 2.5,-2 3,-21 4.5,-27.5 1.5,-6.5 3.5,-15.5 7.5,-15.5 4,0 6.5,12 6,16.5 -0.5,4.5 1.5,16.5 1.5,16.5 -9,10 -24.5,33 -24.5,47 z"
       id="path12790" />
    <path
       style="fill:url(#linearGradient12818);fill-opacity:1;fill-rule:evenodd;stroke:none"
       d="m 368,369.86218 c 2,-18 0.5,-34 6,-34 5.5,0 1.5,30.5 1.5,30.5 l -0.0779,-0.0424 c -3.07786,-0.38473 -5.00152,0.92336 -7.4221,3.54242 z"
       id="path12792" />
    <path
       style="fill:url(#linearGradient12816);fill-opacity:1;fill-rule:evenodd;stroke:none"
       d="m 325.5,396.36218 c 3,-7.5 0.5,-25 3.5,-24.25 3,0.75 10.5,20 9.5,25 -1,5 -4.75,13.5 -4.75,13.5 -0.5,-7.75 -3.5,-12 -8.25,-14.25 z"
       id="path12794" />
    <text
       xml:space="preserve"
       style="font-size:190px;font-style:italic;font-variant:normal;font-weight:bold;font-stretch:normal;text-align:start;line-height:100%;writing-mode:lr-tb;text-anchor:start;fill:#000000;fill-opacity:1;stroke:none;display:inline;font-family:URW Chancery L"
       id="text21733"
       sodipodi:linespacing="100%"><textPath
         xlink:href="#path4644"
         id="textPath4649"
         style="font-size:115px;font-style:normal;font-variant:normal;font-weight:normal;font-stretch:normal;font-family:Linux Libertine O C;-inkscape-font-specification:Linux Libertine O C">G  o p h a r</textPath></text>
    <path
       style="color:#000000;fill:none;stroke:#030303;stroke-width:6.552;stroke-opacity:1;marker:none;visibility:visible;display:inline;overflow:visible;enable-background:accumulate;stroke-miterlimit:4;stroke-dasharray:none;stroke-linecap:round;marker-start:none"
       clip-path="none"
       d="m 70.9375,535.875 c 41.11636,61.43408 133.80473,104.28125 241.5625,104.28125 123.17576,0 226.66198,-55.98137 255.9375,-131.71875 m -497.5,27.4375"
       transform="translate(34.844224,182.6026)"
       id="path4644-5"
       sodipodi:nodetypes="cscc" />
  </g>
</svg>
