<?xml version="1.0" encoding="UTF-8" standalone="no"?>
<!-- Created with Inkscape (http://www.inkscape.org/) -->

<svg
   xmlns:dc="http://purl.org/dc/elements/1.1/"
   xmlns:cc="http://creativecommons.org/ns#"
   xmlns:rdf="http://www.w3.org/1999/02/22-rdf-syntax-ns#"
   xmlns:svg="http://www.w3.org/2000/svg"
   xmlns="http://www.w3.org/2000/svg"
   xmlns:xlink="http://www.w3.org/1999/xlink"
   xmlns:sodipodi="http://sodipodi.sourceforge.net/DTD/sodipodi-0.dtd"
   xmlns:inkscape="http://www.inkscape.org/namespaces/inkscape"
   width="500"
   height="500"
   id="svg2"
   sodipodi:version="0.32"
   inkscape:version="0.48.1 r9760"
   sodipodi:docname="wxgeometrie-icone.svg"
   inkscape:export-filename="/home/nicolas/Programmation/wxgeometrie/doc/source/img/geophar-icone.png"
   inkscape:export-xdpi="27"
   inkscape:export-ydpi="27"
   inkscape:output_extension="org.inkscape.output.svg.inkscape"
   version="1.0"
   sodipodi:modified="TRUE">
  <defs
     id="defs4">
    <linearGradient
       id="linearGradient4668">
      <stop
         style="stop-color:#ffe020;stop-opacity:1;"
         offset="0"
         id="stop4670" />
      <stop
         id="stop4672"
         offset="0.61838436"
         style="stop-color:#edc110;stop-opacity:1;" />
      <stop
         id="stop4674"
         offset="1"
         style="stop-color:#db3100;stop-opacity:1;" />
    </linearGradient>
    <linearGradient
       id="linearGradient4559">
      <stop
         style="stop-color:#1c543d;stop-opacity:1;"
         offset="0"
         id="stop4561" />
      <stop
         id="stop4579"
         offset="0.5"
         style="stop-color:#1c543d;stop-opacity:1;" />
      <stop
         id="stop4571"
         offset="1"
         style="stop-color:#1c543d;stop-opacity:0;" />
    </linearGradient>
    <linearGradient
       id="linearGradient4483">
      <stop
         id="stop4487"
         offset="0"
         style="stop-color:#ffe020;stop-opacity:1;" />
      <stop
         style="stop-color:#edc110;stop-opacity:1;"
         offset="0.5"
         id="stop4491" />
      <stop
         style="stop-color:#db3100;stop-opacity:1;"
         offset="1"
         id="stop4489" />
    </linearGradient>
    <inkscape:perspective
       sodipodi:type="inkscape:persp3d"
       inkscape:vp_x="0 : 326.46609 : 1"
       inkscape:vp_y="0 : 1000 : 0"
       inkscape:vp_z="628.45648 : 326.46609 : 1"
       inkscape:persp3d-origin="314.22824 : 217.64406 : 1"
       id="perspective86" />
    <linearGradient
       id="linearGradient20836">
      <stop
         id="stop20838"
         offset="0"
         style="stop-color:#125c6a;stop-opacity:0.90196079;" />
      <stop
         id="stop20840"
         offset="1"
         style="stop-color:#7027c2;stop-opacity:0.08627451;" />
    </linearGradient>
    <linearGradient
       id="linearGradient19945">
      <stop
         style="stop-color:#1f0c6e;stop-opacity:0.88627452;"
         offset="0"
         id="stop19947" />
      <stop
         style="stop-color:#106f84;stop-opacity:0.23921569;"
         offset="1"
         id="stop19949" />
    </linearGradient>
    <linearGradient
       id="linearGradient19054">
      <stop
         id="stop19056"
         offset="0"
         style="stop-color:#142366;stop-opacity:0.77678573;" />
      <stop
         id="stop19058"
         offset="1"
         style="stop-color:#1c6879;stop-opacity:0.39215687;" />
    </linearGradient>
    <linearGradient
       id="linearGradient16387">
      <stop
         id="stop16389"
         offset="0"
         style="stop-color:#0a3827;stop-opacity:1;" />
      <stop
         id="stop16391"
         offset="1"
         style="stop-color:#765d1b;stop-opacity:0.49803922;" />
    </linearGradient>
    <linearGradient
       id="linearGradient15484">
      <stop
         style="stop-color:#236036;stop-opacity:1;"
         offset="0"
         id="stop15486" />
      <stop
         style="stop-color:#93ac2c;stop-opacity:0.69803923;"
         offset="1"
         id="stop15488" />
    </linearGradient>
    <linearGradient
       id="linearGradient12782">
      <stop
         style="stop-color:white;stop-opacity:1;"
         offset="0"
         id="stop12784" />
      <stop
         id="stop12786"
         offset="0.41999999"
         style="stop-color:white;stop-opacity:0.98039216;" />
      <stop
         style="stop-color:#e0cad1;stop-opacity:0.8214286;"
         offset="1"
         id="stop12788" />
    </linearGradient>
    <linearGradient
       id="linearGradient11887">
      <stop
         id="stop11889"
         offset="0"
         style="stop-color:#fff0a9;stop-opacity:1;" />
      <stop
         style="stop-color:#ffea67;stop-opacity:1;"
         offset="0.5"
         id="stop11891" />
      <stop
         id="stop11893"
         offset="1"
         style="stop-color:#ffb668;stop-opacity:1;" />
    </linearGradient>
    <linearGradient
       id="linearGradient10091">
      <stop
         style="stop-color:#142366;stop-opacity:0.90178573;"
         offset="0"
         id="stop10093" />
      <stop
         style="stop-color:#152980;stop-opacity:0.23137255;"
         offset="1"
         id="stop10988" />
    </linearGradient>
    <linearGradient
       id="linearGradient2894">
      <stop
         style="stop-color:#ffffff;stop-opacity:1;"
         offset="0"
         id="stop2896" />
      <stop
         id="stop2902"
         offset="0.5"
         style="stop-color:#e7e9f3;stop-opacity:1;" />
      <stop
         style="stop-color:#c69999;stop-opacity:1;"
         offset="1"
         id="stop2898" />
    </linearGradient>
    <inkscape:perspective
       id="perspective3791"
       inkscape:persp3d-origin="0.5 : 0.33333333 : 1"
       inkscape:vp_z="1 : 0.5 : 1"
       inkscape:vp_y="0 : 1000 : 0"
       inkscape:vp_x="0 : 0.5 : 1"
       sodipodi:type="inkscape:persp3d" />
    <inkscape:perspective
       id="perspective4397"
       inkscape:persp3d-origin="0.5 : 0.33333333 : 1"
       inkscape:vp_z="1 : 0.5 : 1"
       inkscape:vp_y="0 : 1000 : 0"
       inkscape:vp_x="0 : 0.5 : 1"
       sodipodi:type="inkscape:persp3d" />
    <inkscape:perspective
       id="perspective4419"
       inkscape:persp3d-origin="0.5 : 0.33333333 : 1"
       inkscape:vp_z="1 : 0.5 : 1"
       inkscape:vp_y="0 : 1000 : 0"
       inkscape:vp_x="0 : 0.5 : 1"
       sodipodi:type="inkscape:persp3d" />
    <inkscape:perspective
       id="perspective4454"
       inkscape:persp3d-origin="0.5 : 0.33333333 : 1"
       inkscape:vp_z="1 : 0.5 : 1"
       inkscape:vp_y="0 : 1000 : 0"
       inkscape:vp_x="0 : 0.5 : 1"
       sodipodi:type="inkscape:persp3d" />
    <linearGradient
       inkscape:collect="always"
       xlink:href="#linearGradient4483"
       id="linearGradient4498"
       gradientUnits="userSpaceOnUse"
       x1="247.81895"
       y1="418.90833"
       x2="328.24753"
       y2="479.37677" />
    <linearGradient
       inkscape:collect="always"
       xlink:href="#linearGradient4483"
       id="linearGradient4501"
       gradientUnits="userSpaceOnUse"
       gradientTransform="matrix(1,0,0,1.1033597,1e-7,-25.332511)"
       x1="295.31897"
       y1="358.43478"
       x2="328.24753"
       y2="479.37677" />
    <linearGradient
       inkscape:collect="always"
       xlink:href="#linearGradient4559"
       id="linearGradient4565"
       x1="251.38855"
       y1="236.71573"
       x2="251.38855"
       y2="414.24182"
       gradientUnits="userSpaceOnUse"
       gradientTransform="translate(76.322612,266.55705)" />
    <inkscape:perspective
       id="perspective4632"
       inkscape:persp3d-origin="0.5 : 0.33333333 : 1"
       inkscape:vp_z="1 : 0.5 : 1"
       inkscape:vp_y="0 : 1000 : 0"
       inkscape:vp_x="0 : 0.5 : 1"
       sodipodi:type="inkscape:persp3d" />
    <linearGradient
       inkscape:collect="always"
       xlink:href="#linearGradient4559"
       id="linearGradient4664"
       gradientUnits="userSpaceOnUse"
       gradientTransform="matrix(1.0535553,0,0,1.0401275,78.368189,214.58349)"
       x1="251.38855"
       y1="236.71573"
       x2="251.38855"
       y2="414.24182" />
    <linearGradient
       inkscape:collect="always"
       xlink:href="#linearGradient4668"
       id="linearGradient4666"
       gradientUnits="userSpaceOnUse"
       gradientTransform="matrix(1.0535553,0,0,1.1476348,-2.0418947,-89.018885)"
       x1="295.31897"
       y1="393.37701"
       x2="320.97458"
       y2="491.83871" />
  </defs>
  <sodipodi:namedview
     id="base"
     pagecolor="#ffffff"
     bordercolor="#666666"
     borderopacity="1.0"
     inkscape:pageopacity="0.0"
     inkscape:pageshadow="2"
     inkscape:zoom="0.8"
     inkscape:cx="209.74378"
     inkscape:cy="251.7567"
     inkscape:document-units="px"
     inkscape:current-layer="g4638"
     inkscape:window-width="1280"
     inkscape:window-height="949"
     inkscape:window-x="0"
     inkscape:window-y="24"
     showgrid="false"
     inkscape:window-maximized="1" />
  <metadata
     id="metadata7">
    <rdf:RDF>
      <cc:Work
         rdf:about="">
        <dc:format>image/svg+xml</dc:format>
        <dc:type
           rdf:resource="http://purl.org/dc/dcmitype/StillImage" />
        <dc:title></dc:title>
      </cc:Work>
    </rdf:RDF>
  </metadata>
  <g
     inkscape:label="Calque 1"
     inkscape:groupmode="layer"
     id="layer1"
     style="display:none"
     sodipodi:insensitive="true"
     transform="translate(-76.322612,-266.55705)">
    <image
       y="285.33466"
       x="102.20913"
       id="image1999"
       height="481"
       width="481"
       sodipodi:absref="/home/nicolas/Dropbox/Programmation/wxgeometrie/wxgeometrie/images/archives/installation 1beta6.2\complements\fleur_medaillon.png"
       xlink:href="/home/nicolas/Dropbox/Programmation/wxgeometrie/wxgeometrie/images/archives/installation 1beta6.2\complements\fleur_medaillon.png" />
  </g>
  <g
     inkscape:groupmode="layer"
     id="layer3"
     inkscape:label="eau medaillon"
     style="display:inline"
     transform="translate(-76.322612,-266.55705)">
    <g
       id="g4660">
      <path
         transform="matrix(0.85470085,0,0,0.85470085,307.09187,309.29209)"
         d="M 315,242.5 C 315,404.04329 184.04329,535 22.5,535 -139.04329,535 -270,404.04329 -270,242.5 -270,80.956711 -139.04329,-50 22.5,-50 184.04329,-50 315,80.956711 315,242.5 z"
         sodipodi:ry="292.5"
         sodipodi:rx="292.5"
         sodipodi:cy="242.5"
         sodipodi:cx="22.5"
         id="path4583"
         style="fill:#22208c;fill-opacity:1;stroke:none;display:inline"
         sodipodi:type="arc" />
      <path
         transform="matrix(1.0752688,0,0,1.0752688,1753.7419,325.69684)"
         d="m -1115,177.5 c 0,117.36051 -95.1395,212.5 -212.5,212.5 -117.3605,0 -212.5,-95.13949 -212.5,-212.5 0,-117.360509 95.1395,-212.5 212.5,-212.5 117.3605,0 212.5,95.139491 212.5,212.5 z"
         sodipodi:ry="212.5"
         sodipodi:rx="212.5"
         sodipodi:cy="177.5"
         sodipodi:cx="-1327.5"
         id="path4585"
         style="fill:none;stroke:#14132f;stroke-width:40;stroke-miterlimit:4;stroke-opacity:1;stroke-dasharray:none;display:inline"
         sodipodi:type="arc" />
    </g>
    <g
       id="g4638"
       transform="matrix(0.94916711,0,0,0.96142056,1.9380993,60.252076)">
      <path
         sodipodi:nodetypes="ccsscscsszcszcccssccccsssccccc"
         id="path15482"
         d="m 272.88378,476.15817 c -12,10 -36.44544,24.46447 -36.44544,24.46447 0,0 9,-3 -22.99999,3 -32,6 -86,22 -85,33 1,11 11,13 11,13 27,6 30,1 56,-6 26,-7 104.99999,-27 104.99999,-27 0,0 13,2 -3,12 -16,10 -20.25,-2 -28.25,4 -8,6 -44.17465,33.79941 -69.75,43.75 -25.57535,9.95059 -49.17048,38.17654 -28,59 6,3 80.75,-11.25 83.75,-17.25 16,18 -40.5,44.25 -11.25,58.5 29.25,14.25 75.75,-50 75.75,-50 7.77424,20.48313 31.27567,102.50256 57.75,102 13.99746,-35.53646 26.09451,-68.80613 19.75,-115.25 0,0 27.25,46.25 33.25,46.25 6,0 15,-8 14,-16 -1,-8 -8,-42 -8,-42 0,0 11,20 19,22 22.07156,3.15838 13.59563,-15.95695 11,-29 11.63488,14.17634 41.72721,48.62519 61,33 7,-14 -5,-40 -13,-48 -8,-8 -28,-25 -39,-30 -11,-5 -43,-24 -34,-26 9,-2 12,-4 12,-4 0,0 0,-11 -22,-25 0,0 14,-16 24,-18 157.49898,-13.20698 -2.23676,-48.88228 -69,-18 -10,5 -114.55456,17.53553 -113.55456,17.53553 z"
         style="fill:#399d26;fill-opacity:1;fill-rule:evenodd;stroke:none" />
      <path
         sodipodi:nodetypes="cccsscccscc"
         id="path4517"
         d="m 253.8131,476.99549 c -28.1434,45.45496 -85.11486,60.75826 -85.11486,60.75826 l 120.39214,-10.69544 c 0,0 -55.22947,20.99529 -81.33883,89.90039 -11.99151,31.64674 113.93692,-45.56185 118.83883,-16.15039 6.25,37.5 30,78.75 36.25,57.5 4.03549,-49.22064 34.09115,-79.64156 44.84835,-128.7132 l 56.40165,57.4632 c 0,0 1.14771,-7.25618 -10.15165,6.33883 -58.6429,70.55722 -78.59835,-85.08883 -78.59835,-85.08883 L 253.8131,476.99549 z"
         style="fill:url(#linearGradient4664);fill-opacity:1;stroke:none" />
      <path
         sodipodi:nodetypes="cccszccczccccccccc"
         id="path3797"
         d="m 256.9305,521.96632 c 0,0 -38.125,-22.5 -51.25,-37.5 -12.28367,-15.44568 -53.66373,-64.60478 -40,-90 3.125,-0.625 33.42021,23.73235 62.30394,38.4467 33.125,16.875 -47.22962,-45.84867 -35.13326,-70.52539 12.09636,-24.67671 40.53134,5.4068 77.48161,9.77475 -4.6783,-16.12436 0.88271,-40.24582 9.72271,-55.82106 21.79858,-2.37835 42.06897,34.56047 58.75,48.125 19.60157,-20.22661 27.97802,-34.81727 43.75,-33.75 15.77198,1.06726 33.125,36.25 33.125,36.25 15.33721,-11.31626 38.39125,-27.03342 58.125,-24.375 11.10722,19.74343 -21.89621,55.00099 -30,75 l 52.218,-28.09617 c 2.00027,23.43744 -35.28952,68.8911 -19.01299,56.53419 13.89634,-11.04711 29.80332,-1.09483 44.96501,-31.06541 12.5278,12.93468 11.02231,49.4736 -12.45556,71.95223 -32.69647,30.27958 -95.71446,57.55016 -103.83946,56.92516 l -148.75,-21.875 z"
         style="fill:#ffffff;fill-opacity:1;stroke:none" />
      <path
         sodipodi:nodetypes="csscsccccsccccscssssscc"
         style="fill:url(#linearGradient4666);fill-opacity:1;fill-rule:evenodd;stroke:none;display:inline"
         d="m 331.72635,362.43516 c -9.02937,0.39654 1.69372,40.59961 2.90169,46.79901 1.22714,6.29781 -27.0929,-26.57462 -20.95721,-15.77837 6.13571,10.79623 2.5,24.82671 2.5,24.82671 0,0 -8.58839,-1.45736 -13.49696,-7.75516 -4.90856,-6.29781 -12.19062,-19.29919 -46.55054,-18.3995 0,0 12.24276,15.31923 12.24276,34.21265 12.27141,10.79624 -20.83461,-10.79097 -31.87886,-20.68753 0,0 -7.39243,4.48887 2.42469,19.78353 8.58997,8.09719 42.97492,14.39833 54.01919,22.49552 11.04425,8.09717 22.06871,12.58412 52.74721,62.96657 0,-21.33019 27.24112,-54.23333 49.0108,-74.75325 4.32045,0.39101 8.00927,1.74946 11.88501,4.97196 l 0.0795,0.17385 c 0,0 40.90525,-39.30181 29.89142,-46.83378 -8.18884,-5.60006 -18.19724,7.10094 -32.39561,23.71242 -1.29616,-6.99645 -2.76373,-16.66217 -2.02722,-21.52198 1.22713,-8.09718 -4.89008,-29.69269 -14.70721,-29.69269 -9.8171,0 -14.72245,16.18878 -18.40388,27.8847 -3.68142,11.69592 -3.66459,17.12748 -9.80029,20.72622 -6.13571,3.59875 -17.19036,-52.19642 -27.00749,-53.09611 -0.1534,-0.014 -0.33367,-0.0411 -0.477,-0.0347 l 0,-7e-5 z"
         id="path12790" />
      <path
         sodipodi:nodetypes="csssccc"
         id="path3820"
         d="m 254.3055,460.71632 c 5.625,-22.5 11.875,-30.625 23.75,-26.875 11.875,3.75 23.125,1.875 35,13.75 11.875,11.875 22.5,32.5 27.5,40 5,7.5 2.5,44.375 2.5,44.375 l -55.625,-15 -33.125,-56.25 z"
         style="fill:#ffffff;fill-opacity:1;stroke:none" />
      <path
         id="path3822"
         d="m 336.71185,488.01455 c 8.96946,-13.54374 12.17284,-30.95713 28.83041,-43.85593 16.65757,-12.89881 29.47108,-19.34821 40.36257,-21.92797 10.89149,-2.57976 27.54906,6.4494 31.39311,6.4494 3.84406,0 -29.47108,94.16127 -29.47108,94.16127 l -72.39636,-13.54374 1.28135,-21.28303 z"
         style="fill:#ffffff;fill-opacity:1;stroke:none" />
      <path
         id="path4440"
         d="m 276.9305,505.09132 c -5,31.25 -11.25,35 -1.25,42.5 10,7.5 15,16.25 37.5,22.5 22.5,6.25 23.75,-1.25 48.75,-7.5 25,-6.25 57.5,-26.25 57.5,-26.25 l -142.5,-31.25 z"
         style="fill:#ffffff;fill-opacity:1;stroke:none" />
      <path
         sodipodi:nodetypes="csssc"
         id="path4442"
         d="m 274.4305,511.34132 c 0,0 -76.25,28.75 -135,20 -11.72916,-1.7469 4.95535,29.22015 41.25,33.75 79.42286,9.91258 107.5,-18.75 123.75,-26.25 16.25,-7.5 -28.75,-25 -30,-27.5 z"
         style="fill:#ffffff;fill-opacity:1;stroke:none" />
      <path
         sodipodi:nodetypes="csccc"
         id="path4444"
         d="m 351.9305,552.59132 c 0,0 40,40 61.25,42.5 21.25,2.5 42.5,23.75 70,-10 -13.75,-20 -83.75,-46.25 -83.75,-46.25 l -47.5,13.75 z"
         style="fill:#ffffff;fill-opacity:1;stroke:none" />
    </g>
  </g>
  <g
     inkscape:groupmode="layer"
     id="layer4"
     inkscape:label="feuilles"
     transform="translate(-76.322612,-266.55705)" />
  <g
     inkscape:groupmode="layer"
     id="layer2"
     inkscape:label="dessin"
     style="display:inline"
     transform="translate(-76.322612,-266.55705)" />
</svg>
